<?xml version="1.0" encoding="utf-8"?>
<!-- Generator: Adobe Illustrator 27.2.0, SVG Export Plug-In . SVG Version: 6.00 Build 0)  -->
<svg version="1.1" id="Layer_1" xmlns="http://www.w3.org/2000/svg" xmlns:xlink="http://www.w3.org/1999/xlink" x="0px" y="0px"
	 viewBox="0 0 157.1 43.6" style="enable-background:new 0 0 157.1 43.6;" xml:space="preserve">
<style type="text/css">
	.st0{fill:#231F20;}
</style>
<g>
	<path class="st0" d="M75.4,14.8c0-3.1,2-5.5,5.2-5.5c3,0,4.3,1.8,4.3,3.6c0,1.7-1.3,3.2-3.8,3.2c-0.8,0-1.5-0.2-2.2-0.6
		c-0.3-0.2-0.6-0.5-0.4-1c0.1-0.4,0.5-0.7,1-0.5c0.5,0.3,1,0.5,1.6,0.5c1.1,0,1.9-0.5,1.9-1.6c0-1.2-0.9-1.9-2.4-1.9
		c-2.2,0-3.4,1.8-3.4,3.9c0,2.2,1.3,4.1,3.8,4.1c1.3,0,2.2-0.4,2.9-1c0.5-0.4,1-0.3,1.3,0.1c0.3,0.4,0.1,0.9-0.3,1.2
		c-0.7,0.6-2,1.3-4,1.3C77.4,20.4,75.4,17.8,75.4,14.8z"/>
	<path class="st0" d="M86.8,14.8c0-3.1,2-5.5,5.2-5.5c3,0,4.3,1.8,4.3,3.6c0,1.7-1.3,3.2-3.8,3.2c-0.8,0-1.5-0.2-2.2-0.6
		c-0.3-0.2-0.6-0.5-0.4-1c0.1-0.4,0.5-0.7,1-0.5c0.5,0.3,1,0.5,1.6,0.5c1.1,0,1.9-0.5,1.9-1.6c0-1.2-0.9-1.9-2.4-1.9
		c-2.2,0-3.4,1.8-3.4,3.9c0,2.2,1.3,4.1,3.8,4.1c1.3,0,2.2-0.4,2.9-1c0.5-0.4,1-0.3,1.3,0.1c0.3,0.4,0.1,0.9-0.3,1.2
		c-0.7,0.6-2,1.3-4,1.3C88.8,20.4,86.8,17.8,86.8,14.8z"/>
	<path class="st0" d="M99,3.5c0-2.4,0.9-3,2.5-3h0.1c0.5,0,0.8,0.3,0.8,0.8c0,0.5-0.3,0.8-0.8,0.8h-0.1c-0.5,0-0.8,0.3-0.8,1.2v8.2
		c0.9-1.6,2.5-2.4,4.1-2.4c1.7,0,2.8,1,2.8,2.5c0,1.8-1.7,3.4-3.6,3.7c0.6,0.2,1.1,0.9,1.8,1.8c0.6,0.9,1,1.4,1.5,1.4
		c0.5,0,0.8-0.5,1.1-0.5c0.3,0,0.7,0.2,0.7,0.7c0,0.8-1,1.5-2,1.5c-1.1,0-1.7-0.4-2.7-1.9c-0.9-1.4-1.2-2-2-2.2
		c-0.4-0.1-0.6-0.4-0.6-0.8s0.3-0.6,0.7-0.8c2.6-0.6,3.2-1.9,3.2-2.7c0-0.7-0.4-1.1-1.4-1.1c-1.7,0-3.6,1.4-3.7,4.5v4.1
		c0,0.6-0.4,0.8-0.9,0.8c-0.4,0-0.8-0.3-0.8-0.8V3.5z"/>
	<path class="st0" d="M110.2,14.8c0-3.1,2-5.5,5.2-5.5c3,0,4.3,1.8,4.3,3.6c0,1.7-1.3,3.2-3.8,3.2c-0.8,0-1.5-0.2-2.2-0.6
		c-0.3-0.2-0.6-0.5-0.4-1c0.1-0.4,0.5-0.7,1-0.5c0.5,0.3,1,0.5,1.6,0.5c1.1,0,1.9-0.5,1.9-1.6c0-1.2-0.9-1.9-2.4-1.9
		c-2.2,0-3.4,1.8-3.4,3.9c0,2.2,1.3,4.1,3.8,4.1c1.3,0,2.2-0.4,2.9-1c0.5-0.4,1-0.3,1.3,0.1c0.3,0.4,0.1,0.9-0.3,1.2
		c-0.7,0.6-2,1.3-4,1.3C112.2,20.4,110.2,17.8,110.2,14.8z"/>
	<path class="st0" d="M124.2,11.9c0.9-2,2.7-2.6,4-2.6c1.8,0,3.1,1.1,3.1,3.6v5c0,0.6,0.2,1,0.5,1c0.3,0,0.5-0.2,0.7-0.4
		c0.8-0.7,1.7,0.3,0.9,1.1c-0.3,0.4-0.9,0.8-1.8,0.8c-1.3,0-2-0.7-2-2.3v-5c0-1.5-0.6-2.2-1.7-2.2c-1.7,0-3.6,1.6-3.6,4.8v3.9
		c0,0.6-0.4,0.8-0.9,0.8c-0.4,0-0.8-0.3-0.8-0.8V10c0-0.5,0.4-0.8,0.8-0.8c0.5,0,0.9,0.3,0.9,0.8V11.9z"/>
	<path class="st0" d="M142.2,18.3c-0.8,1.3-2.2,2.1-3.8,2.1c-2.5,0-4-2-4-4.8c0-3.5,2-6.4,5.3-6.4c1.1,0,1.8,0.4,2.5,1.3V1.3
		c0-0.6,0.4-0.8,0.9-0.8c0.4,0,0.8,0.3,0.8,0.8v16.5c0,0.6,0.2,1,0.5,1c0.3,0,0.5-0.2,0.8-0.4c0.8-0.7,1.7,0.3,0.9,1.1
		c-0.3,0.4-0.9,0.8-1.8,0.8C143.1,20.3,142.3,19.7,142.2,18.3z M136.3,15.6c0,2,1,3.2,2.4,3.2c2,0,3.4-2,3.5-4.4v-0.2
		c0-1.8-0.8-3.3-2.5-3.3C137.5,10.9,136.3,13.3,136.3,15.6z"/>
</g>
<g>
	<path class="st0" d="M71.5,31.9c3.1,0,5.5,1.9,5.5,5.6c0,3.7-2.4,5.5-5.5,5.5c-3.1,0-5.5-1.9-5.5-5.5C66,33.9,68.4,31.9,71.5,31.9z
		 M71.5,33.5c-2,0-3.6,1.5-3.6,4s1.6,3.9,3.6,3.9c2.1,0,3.7-1.4,3.7-3.9S73.6,33.5,71.5,33.5z"/>
	<path class="st0" d="M84.1,31.9c3.1,0,5.5,1.9,5.5,5.6c0,3.7-2.4,5.5-5.5,5.5c-3.1,0-5.5-1.9-5.5-5.5
		C78.7,33.9,81.1,31.9,84.1,31.9z M84.1,33.5c-2,0-3.6,1.5-3.6,4s1.6,3.9,3.6,3.9c2.1,0,3.7-1.4,3.7-3.9S86.2,33.5,84.1,33.5z"/>
	<path class="st0" d="M99.2,41c-0.8,1.3-2.2,2.1-3.8,2.1c-2.5,0-4-2-4-4.8c0-3.5,2-6.4,5.3-6.4c1.1,0,1.8,0.4,2.5,1.3V24
		c0-0.6,0.4-0.8,0.9-0.8c0.4,0,0.8,0.3,0.8,0.8v16.5c0,0.6,0.2,1,0.5,1s0.5-0.2,0.8-0.4c0.8-0.7,1.7,0.3,0.9,1.1
		c-0.3,0.4-0.9,0.8-1.8,0.8C100,43,99.3,42.4,99.2,41z M93.2,38.3c0,2,1,3.2,2.4,3.2c2,0,3.4-2,3.5-4.4v-0.2c0-1.8-0.8-3.3-2.5-3.3
		C94.4,33.6,93.2,36,93.2,38.3z"/>
	<path class="st0" d="M109.8,34.7c-0.5-0.6-1.1-1.1-2.3-1.1c-1.1,0-1.9,0.7-1.9,1.5c0,1,0.8,1.5,1.8,2.1c1.3,0.8,3,1.6,3,3.4
		c0,1.5-1.1,2.5-2.7,2.5c-1.3,0-2.7-0.6-2.7-1.6c0-0.5,0.3-0.8,0.8-0.8c0.6,0,0.9,0.8,2,0.8c0.6,0,1-0.3,1-0.8c0-1-1.1-1.4-2.1-2
		c-1.3-0.8-2.7-1.7-2.7-3.6c0-1.8,1.5-3.2,3.6-3.2c1.8,0,2.8,0.7,3.5,1.7C111.6,34.5,110.4,35.4,109.8,34.7z"/>
	<path class="st0" d="M115.1,34.1c0.8-1.6,2.3-2.2,3.5-2.2c1.4,0,2.5,0.8,2.7,2.2c0.9-1.6,2.3-2.2,3.6-2.2c1.4,0,2.8,1.1,2.8,3.1
		v5.5c0,0.6,0.2,1,0.5,1c0.3,0,0.5-0.2,0.7-0.4c0.8-0.7,1.7,0.3,0.9,1.1c-0.3,0.4-0.9,0.8-1.8,0.8c-1.3,0-2-0.7-2-2.3v-5
		c0-1.7-0.7-2.2-1.3-2.2c-1.6,0-3.2,1.7-3.2,5.3v3.4c0,0.5-0.5,0.8-0.9,0.8c-0.4,0-0.8-0.3-0.8-0.8v-6.7c0-1.5-0.7-2-1.4-2
		c-1.5,0-2.9,1.3-3.2,4v4.7c0,0.6-0.4,0.8-0.9,0.8c-0.4,0-0.8-0.3-0.8-0.8v-9.5c0-0.5,0.4-0.8,0.8-0.8c0.5,0,0.9,0.3,0.9,0.8V34.1z"
		/>
	<path class="st0" d="M133.7,28.6c0,0.7-0.5,1.2-1.2,1.2c-0.6,0-1.1-0.5-1.1-1.2c0-0.7,0.5-1.2,1.1-1.2
		C133.1,27.4,133.7,27.9,133.7,28.6z M131.6,40.7v-8c0-0.6,0.4-0.8,0.9-0.8c0.4,0,0.8,0.3,0.8,0.8v7.8c0,0.6,0.2,1,0.5,1
		c0.3,0,0.5-0.2,0.8-0.4c0.8-0.7,1.7,0.3,0.9,1.1c-0.3,0.4-0.9,0.8-1.8,0.8C132.3,43,131.6,42.3,131.6,40.7z"/>
	<path class="st0" d="M140.2,33.8v5.5c0,1.7,0.5,2.2,1.1,2.2c0.4,0,0.8-0.1,1.1-0.4c0.2-0.2,0.4-0.3,0.6-0.3c0.5,0,0.8,0.4,0.8,0.9
		c0,0.2-0.1,0.4-0.2,0.6c-0.5,0.5-1.3,1-2.4,1c-2.1,0-2.8-1.3-2.8-3.4v-5.9h-2c-0.5,0-0.8-0.4-0.8-0.8s0.3-0.8,0.8-0.8h2v-2.3
		c0-0.6,0.4-0.8,0.9-0.8c0.4,0,0.9,0.3,0.9,0.8v2.3h2.8c0.5,0,0.8,0.4,0.8,0.8s-0.3,0.8-0.8,0.8H140.2z"/>
	<path class="st0" d="M145.8,26.2c0-2.4,0.9-3,2.5-3h0.1c0.5,0,0.8,0.3,0.8,0.8c0,0.5-0.3,0.8-0.8,0.8h-0.1c-0.5,0-0.8,0.3-0.8,1.2
		v8.5c0.9-2,2.7-2.6,4-2.6c1.8,0,3.1,1.1,3.1,3.6v5c0,0.6,0.2,1,0.5,1c0.3,0,0.5-0.2,0.7-0.4c0.8-0.7,1.7,0.3,0.9,1.1
		c-0.3,0.4-0.9,0.8-1.8,0.8c-1.3,0-2-0.7-2-2.3v-5c0-1.5-0.6-2.2-1.7-2.2c-1.7,0-3.6,1.6-3.6,4.8v3.9c0,0.6-0.4,0.8-0.9,0.8
		c-0.4,0-0.8-0.3-0.8-0.8V26.2z"/>
</g>
<g>
	<path class="st0" d="M45.7,22.7l-7.3,19.2c-0.4,1.2-1.2,1.7-2.2,1.7c-1,0-1.7-0.6-2.2-1.8l-8.6-23.8c-2.8-8-5.1-13.9-12.5-13.9
		c-5.8,0-8.6,4.3-8.6,8.6c0,3.2,1.7,5.7,3.7,7.6c0.5,0.4,0.6,1.1,0.6,1.6C8.6,23,7.6,24,6.6,24C6.3,24,5.8,24,5,23.4
		c-2.9-2.3-5-6.1-5-10.6C0,5.3,5.6,0.1,12.8,0.1c8.9,0,12.5,4.2,17.7,19.4l5.5,16.3l7.3-19L37.9,2.7c0-0.2-0.1-0.5-0.1-0.7
		c0-1.1,1.2-1.9,2.4-1.9c0.6,0,1.4,0.4,1.7,1.2l3.7,9.6l3.6-9.6C49.5,0.4,50.3,0,51.1,0c1.2,0,2.4,0.9,2.4,1.9
		c0,0.2-0.1,0.5-0.2,0.7l-5.4,14.1l7.4,19L68.3,1.1C68.7,0.4,69.3,0,70,0c1.2,0,2.4,0.9,2.4,1.9c0,0.2,0,0.5-0.1,0.7l-15,39.2
		c-0.4,1.3-1.2,1.8-2.1,1.8c-1,0-1.7-0.4-2.3-1.9L45.7,22.7z"/>
</g>
</svg>
