<?xml version="1.0" encoding="utf-8"?>
<!-- Generator: Adobe Illustrator 27.2.0, SVG Export Plug-In . SVG Version: 6.00 Build 0)  -->
<svg version="1.1" id="Layer_1" xmlns="http://www.w3.org/2000/svg" xmlns:xlink="http://www.w3.org/1999/xlink" x="0px" y="0px"
	 viewBox="0 0 1800 768" style="enable-background:new 0 0 1800 768;" xml:space="preserve">
<style type="text/css">
	.st0{display:none;}
	.st1{opacity:0.1;}
	.st2{stroke:#000000;stroke-miterlimit:10;}
	.st3{stroke:#000000;stroke-width:6;stroke-miterlimit:10;}
</style>
<g id="IiEDZL.tif" class="st0">
	
		<image style="display:inline;overflow:visible;" width="1942" height="784" id="Layer_0" xlink:href="77458E0D938C35E8.png"  transform="matrix(0.5 0 0 0.5 415 188)">
	</image>
</g>
<g class="st1">
	<path class="st3" d="M281.2,534.1c-28.2-18.6,15.8-46.9,22.3-19.6c2.6,11.1,1.1,14.6,4.5,19.9c2.7,4.3,6.8,2.1,7.8,3.7
		c2.9,4.6,1.9,5,4.9,3.4c12.1-6.6,25.8-15.8,38.2-21c8.9-3.7,12.6,6.1,12.6,6.1L11.3,753.1c0,0-8.1-8.4,6.3-17.5
		c13.9-8.8,96.2-64.8,96.2-64.8s-8.1-8.4-12.1-24.3c-3.5-13.8-3.3-19-0.2-38.9c0.7-4.8-4.4-15.3-16.3-12.1c-7.4,2-18.9,1.9-10.1-3.9
		c1.8-1.2,3.5-2.4,8.2-4.1c12.3-4.5,24.9-6.8,40.7-2.3c7.6,2.2,5.7-0.7,3.6,18.3c-1.3,11.7-0.1,44.5,15.9,34.4
		c13.6-8.6,18.5-9.1,20.3-8.5c0.8,0.3,1.8,0.1,2.3-0.6c3-3.6,10-12.2,9.1-13.7c-0.9-1.4-3.4-5.4-3.4-5.4c-5.4-0.6-3.7-5.8-3.7-5.8
		s-2.9-4.6-3.9-6.2c-0.5-0.8-0.2-1,0.3-1.3c1.2-0.7,1.8-1.1,2.7-1.7c0.5-0.3,1.2-0.7,1.7,0c0.5,0.8,1.7,2.8,2.2,3.5
		c0.2,0.3,0.6,0.1,1-0.1c0.2-0.1,0.6-0.3,0.8-0.5c0,0-3.2-5-3.9-6.2c-0.1-0.2-1.6-0.7-3.8-1.4c-0.7-0.2-1.6-2-2.3-2.3
		c-1.4-0.6-2.7-3.3-3.2-3.4c-2.5-0.4-4.9-1-7.9-1.5c-1-0.1-3-3.4-4-3.5c-11.2-1.6-27.8-5.6-28.9-5.8c-3.2-0.7-3.9,4.1-11,1.5
		c-4.1-1.5-4-2.9-4.5-5.3c-0.1-0.7-1.1-0.9-1.8-1.1c-1-0.3-1.9-0.4-2.5-0.6c-1.3-0.3,0.3-5.3,0.5-5.2c5.3,1.5,22.8,5.1,35.8,7.7
		c8.6,1.7,1.8-3.5,7.9-2.5c0.9,0.2,9.3,3.2,10.1,1.7c0.5-0.8,3.4-5.5,1.6-6.2c-2.1-0.8-4.7-1.8-6.9-2.7c-3.7-1.5-7.2-1.3-8.9-0.1
		c-4.9,3.4-7.4,2.5-5.9,0.3c3.9-5.8,7.5-6.9,13.6-5.9c11.2,1.9,34.4,12.4,47.5,16c3.8,1,0.7-3.2,7.5-1c5.6,1.8,3,4.1,7.4,5.6
		c8.3,2.9,7.9,4.8,14.9,0.3c22.5-14.2,16.5-11.6,26.7-10.9c15.1,0.9,28.4-0.6,41.6-7.9c6.4-3.5,5-1.5,1.9-7.2
		c-0.3-1.4,2-4.5,0.3-7.2C290.9,537.3,289.6,539.6,281.2,534.1z"/>
	<path class="st3" d="M244.1,520c28.3,18.4-15.6,47-22.2,19.7c-2.7-11.1-1.2-14.6-4.6-19.9c-2.7-4.2-6.8-2.1-7.8-3.7
		c-3-4.6-2-5-4.9-3.4c-12.1,6.7-25.7,15.9-38.1,21.2c-8.9,3.8-12.6-6.1-12.6-6.1l358.9-228.5c0,0,8.1,8.4-6.2,17.6
		c-13.9,8.9-95.8,65.3-95.8,65.3s8.1,8.4,12.3,24.2c3.6,13.8,3.4,18.9,0.5,38.9c-0.7,4.8,4.5,15.3,16.4,12c7.4-2,18.9-2,10.1,3.9
		c-1.8,1.2-3.5,2.4-8.2,4.2c-12.3,4.6-24.9,7-40.7,2.5c-7.6-2.1-5.7,0.8-3.7-18.3c1.2-11.7-0.2-44.5-16.1-34.3
		c-13.6,8.7-18.5,9.2-20.2,8.6c-0.8-0.3-1.8,0-2.3,0.6c-3,3.6-10,12.2-9,13.7c0.9,1.4,3.5,5.4,3.5,5.4c5.4,0.5,3.7,5.8,3.7,5.7
		c0,0,2.9,4.5,4,6.2c0.5,0.8,0.2,1-0.3,1.3c-1.2,0.7-1.7,1.1-2.7,1.7c-0.5,0.3-1.2,0.7-1.7,0c-0.5-0.8-1.8-2.7-2.2-3.5
		c-0.2-0.3-0.6-0.1-1,0.1c-0.2,0.1-0.6,0.3-0.8,0.5c0,0,3.2,5,4,6.2c0.1,0.2,1.6,0.7,3.8,1.4c0.7,0.2,1.6,2,2.3,2.3
		c1.4,0.6,2.8,3.3,3.2,3.4c2.5,0.4,4.9,1,7.9,1.4c1,0.1,3,3.4,4,3.5c11.2,1.5,27.8,5.4,28.9,5.6c3.2,0.7,3.9-4.1,11-1.6
		c4.1,1.5,4,2.9,4.5,5.3c0.1,0.7,1.1,0.9,1.8,1c1,0.3,1.9,0.4,2.5,0.6c1.3,0.3-0.3,5.3-0.5,5.2c-5.3-1.5-22.8-5-35.8-7.5
		c-8.6-1.7-1.8,3.5-7.8,2.5c-0.9-0.1-9.3-3.1-10.1-1.7c-0.5,0.8-3.4,5.6-1.6,6.2c2.1,0.8,4.7,1.7,6.9,2.6c3.7,1.5,7.2,1.3,8.9,0
		c4.8-3.4,7.4-2.5,5.9-0.3c-3.9,5.8-7.5,7-13.6,6c-11.2-1.8-34.5-12.2-47.6-15.7c-3.8-1-0.7,3.2-7.5,1c-5.6-1.8-3-4.1-7.4-5.6
		c-8.3-2.8-7.9-4.7-14.9-0.3c-22.4,14.4-16.5,11.7-26.6,11.1c-15.1-0.8-28.4,0.8-41.6,8.2c-6.4,3.6-5,1.6-1.9,7.2
		c0.4,1.4-2,4.5-0.3,7.2C234.5,516.9,235.7,514.5,244.1,520z"/>
	<path class="st3" d="M743.9,246.6c-28.2-18.6,15.8-46.9,22.3-19.6c2.6,11.1,1.1,14.6,4.5,19.9c2.7,4.3,6.8,2.1,7.8,3.7
		c2.9,4.6,1.9,5,4.9,3.4c12.1-6.6,25.8-15.8,38.2-21c8.9-3.7,12.6,6.1,12.6,6.1L474,465.7c0,0-8.1-8.4,6.3-17.5
		c13.9-8.8,96.2-64.8,96.2-64.8s-8.1-8.4-12.1-24.3c-3.5-13.8-3.3-19-0.2-38.9c0.7-4.8-4.4-15.3-16.3-12.1c-7.4,2-18.9,1.9-10.1-3.9
		c1.8-1.2,3.5-2.4,8.2-4.1c12.3-4.5,24.9-6.8,40.7-2.3c7.6,2.2,5.7-0.7,3.6,18.3c-1.3,11.7-0.1,44.5,15.9,34.4
		c13.6-8.6,18.5-9.1,20.3-8.5c0.8,0.3,1.8,0.1,2.3-0.6c3-3.6,10-12.2,9.1-13.7c-0.9-1.4-3.4-5.4-3.4-5.4c-5.4-0.6-3.7-5.8-3.7-5.8
		c0,0-2.9-4.6-3.9-6.2c-0.5-0.8-0.2-1,0.3-1.3c1.2-0.7,1.8-1.1,2.7-1.7c0.5-0.3,1.2-0.7,1.7,0c0.5,0.8,1.7,2.8,2.2,3.5
		c0.2,0.3,0.6,0.1,1-0.1c0.2-0.1,0.6-0.3,0.8-0.5c0,0-3.2-5-3.9-6.2c-0.1-0.2-1.6-0.7-3.8-1.4c-0.7-0.2-1.6-2-2.3-2.3
		c-1.4-0.6-2.7-3.3-3.2-3.4c-2.5-0.4-4.9-1-7.9-1.5c-1-0.1-3-3.4-4-3.5c-11.2-1.6-27.8-5.6-28.9-5.8c-3.2-0.7-3.9,4.1-11,1.5
		c-4.1-1.5-4-2.9-4.5-5.3c-0.1-0.7-1.1-0.9-1.8-1.1c-1-0.3-1.9-0.4-2.5-0.6c-1.3-0.3,0.3-5.3,0.5-5.2c5.3,1.5,22.8,5.1,35.8,7.7
		c8.6,1.7,1.8-3.5,7.9-2.5c0.9,0.2,9.3,3.2,10.1,1.7c0.5-0.8,3.4-5.5,1.6-6.2c-2.1-0.8-4.7-1.8-6.9-2.7c-3.7-1.5-7.2-1.3-8.9-0.1
		c-4.9,3.4-7.4,2.5-5.9,0.3c3.9-5.8,7.5-6.9,13.6-5.9c11.2,1.9,34.4,12.4,47.5,16c3.8,1,0.7-3.2,7.5-1c5.6,1.8,3,4.1,7.4,5.6
		c8.3,2.9,7.9,4.8,14.9,0.3c22.5-14.2,16.5-11.6,26.7-10.9c15.1,0.9,28.4-0.6,41.6-7.9c6.4-3.5,5-1.5,1.9-7.2
		c-0.3-1.4,2-4.5,0.3-7.2C753.5,249.8,752.2,252.1,743.9,246.6z"/>
	<path class="st3" d="M706.7,232.5c28.3,18.4-15.6,47-22.2,19.7c-2.7-11.1-1.2-14.6-4.6-19.9c-2.7-4.2-6.8-2.1-7.8-3.7
		c-3-4.6-2-5-4.9-3.4c-12.1,6.7-25.7,15.9-38.1,21.2c-8.9,3.8-12.6-6.1-12.6-6.1L975.3,11.9c0,0,8.1,8.4-6.2,17.6
		c-13.9,8.9-95.8,65.3-95.8,65.3s8.1,8.4,12.3,24.2c3.6,13.8,3.4,18.9,0.5,38.9c-0.7,4.8,4.5,15.3,16.4,12c7.4-2,18.9-2,10.1,3.9
		c-1.8,1.2-3.5,2.4-8.2,4.2c-12.3,4.6-24.9,7-40.7,2.5c-7.6-2.1-5.7,0.8-3.7-18.3c1.2-11.7-0.2-44.5-16.1-34.3
		c-13.6,8.7-18.5,9.2-20.2,8.6c-0.8-0.3-1.8,0-2.3,0.6c-3,3.6-10,12.2-9,13.7c0.9,1.4,3.5,5.4,3.5,5.4c5.4,0.5,3.7,5.8,3.7,5.7
		c0,0,2.9,4.5,4,6.2c0.5,0.8,0.2,1-0.3,1.3c-1.2,0.7-1.7,1.1-2.7,1.7c-0.5,0.3-1.2,0.7-1.7,0c-0.5-0.8-1.8-2.7-2.2-3.5
		c-0.2-0.3-0.6-0.1-1,0.1c-0.2,0.1-0.6,0.3-0.8,0.5c0,0,3.2,5,4,6.2c0.1,0.2,1.6,0.7,3.8,1.4c0.7,0.2,1.6,2,2.3,2.3
		c1.4,0.6,2.8,3.3,3.2,3.4c2.5,0.4,4.9,1,7.9,1.4c1,0.1,3,3.4,4,3.5c11.2,1.5,27.8,5.4,28.9,5.6c3.2,0.7,3.9-4.1,11-1.6
		c4.1,1.5,4,2.9,4.5,5.3c0.1,0.7,1.1,0.9,1.8,1c1,0.3,1.9,0.4,2.5,0.6c1.3,0.3-0.3,5.3-0.5,5.2c-5.3-1.5-22.8-5-35.8-7.5
		c-8.6-1.7-1.8,3.5-7.8,2.5c-0.9-0.1-9.3-3.1-10.1-1.7c-0.5,0.8-3.4,5.6-1.6,6.2c2.1,0.8,4.7,1.7,6.9,2.6c3.7,1.5,7.2,1.3,8.9,0
		c4.8-3.4,7.4-2.5,5.9-0.3c-3.9,5.8-7.5,7-13.6,6c-11.2-1.8-34.5-12.2-47.6-15.7c-3.8-1-0.7,3.2-7.5,1c-5.6-1.8-3-4.1-7.4-5.6
		c-8.3-2.8-7.9-4.7-14.9-0.3c-22.4,14.4-16.5,11.7-26.6,11.1c-15.1-0.8-28.4,0.8-41.6,8.2c-6.4,3.6-5,1.6-1.9,7.2
		c0.4,1.4-2,4.5-0.3,7.2C697.1,229.4,698.3,227,706.7,232.5z"/>
</g>
<g class="st1">
	<path class="st3" d="M621.5,499.3c-28.2-18.6,15.8-46.9,22.3-19.6c2.6,11.1,1.1,14.6,4.5,19.9c2.7,4.3,6.8,2.1,7.8,3.7
		c2.9,4.6,1.9,5,4.9,3.4c12.1-6.6,25.8-15.8,38.2-21c8.9-3.7,12.6,6.1,12.6,6.1L351.6,718.4c0,0-8.1-8.4,6.3-17.5
		c13.9-8.8,96.2-64.8,96.2-64.8s-8.1-8.4-12.1-24.3c-3.5-13.8-3.3-19-0.2-38.9c0.7-4.8-4.4-15.3-16.3-12.1c-7.4,2-18.9,1.9-10.1-3.9
		c1.8-1.2,3.5-2.4,8.2-4.1c12.3-4.5,24.9-6.8,40.7-2.3c7.6,2.2,5.7-0.7,3.6,18.3c-1.3,11.7-0.1,44.5,15.9,34.4
		c13.6-8.6,18.5-9.1,20.3-8.5c0.8,0.3,1.8,0.1,2.3-0.6c3-3.6,10-12.2,9.1-13.7c-0.9-1.4-3.4-5.4-3.4-5.4c-5.4-0.6-3.7-5.8-3.7-5.8
		c0,0-2.9-4.6-3.9-6.2c-0.5-0.8-0.2-1,0.3-1.3c1.2-0.7,1.8-1.1,2.7-1.7c0.5-0.3,1.2-0.7,1.7,0c0.5,0.8,1.7,2.8,2.2,3.5
		c0.2,0.3,0.6,0.1,1-0.1c0.2-0.1,0.6-0.3,0.8-0.5c0,0-3.2-5-3.9-6.2c-0.1-0.2-1.6-0.7-3.8-1.4c-0.7-0.2-1.6-2-2.3-2.3
		c-1.4-0.6-2.7-3.3-3.2-3.4c-2.5-0.4-4.9-1-7.9-1.5c-1-0.1-3-3.4-4-3.5c-11.2-1.6-27.8-5.6-28.9-5.8c-3.2-0.7-3.9,4.1-11,1.5
		c-4.1-1.5-4-2.9-4.5-5.3c-0.1-0.7-1.1-0.9-1.8-1.1c-1-0.3-1.9-0.4-2.5-0.6c-1.3-0.3,0.3-5.3,0.5-5.2c5.3,1.5,22.8,5.1,35.8,7.7
		c8.6,1.7,1.8-3.5,7.9-2.5c0.9,0.2,9.3,3.2,10.1,1.7c0.5-0.8,3.4-5.5,1.6-6.2c-2.1-0.8-4.7-1.8-6.9-2.7c-3.7-1.5-7.2-1.3-8.9-0.1
		c-4.9,3.4-7.4,2.5-5.9,0.3c3.9-5.8,7.5-6.9,13.6-5.9c11.2,1.9,34.4,12.4,47.5,16c3.8,1,0.7-3.2,7.5-1c5.6,1.8,3,4.1,7.4,5.6
		c8.3,2.9,7.9,4.8,14.9,0.3c22.5-14.2,16.5-11.6,26.7-10.9c15.1,0.9,28.4-0.6,41.6-7.9c6.4-3.5,5-1.5,1.9-7.2
		c-0.3-1.4,2-4.5,0.3-7.2C631.2,502.5,629.9,504.9,621.5,499.3z"/>
	<path class="st3" d="M584.4,485.3c28.3,18.4-15.6,47-22.2,19.7c-2.7-11.1-1.2-14.6-4.6-19.9c-2.7-4.2-6.8-2.1-7.8-3.7
		c-3-4.6-2-5-4.9-3.4c-12.1,6.7-25.7,15.9-38.1,21.2c-8.9,3.8-12.6-6.1-12.6-6.1L853,264.6c0,0,8.1,8.4-6.2,17.6
		c-13.9,8.9-95.8,65.3-95.8,65.3s8.1,8.4,12.3,24.2c3.6,13.8,3.4,18.9,0.5,38.9c-0.7,4.8,4.5,15.3,16.4,12c7.4-2,18.9-2,10.1,3.9
		c-1.8,1.2-3.5,2.4-8.2,4.2c-12.3,4.6-24.9,7-40.7,2.5c-7.6-2.1-5.7,0.8-3.7-18.3c1.2-11.7-0.2-44.5-16.1-34.3
		c-13.6,8.7-18.5,9.2-20.2,8.6c-0.8-0.3-1.8,0-2.3,0.6c-3,3.6-10,12.2-9,13.7c0.9,1.4,3.5,5.4,3.5,5.4c5.4,0.5,3.7,5.8,3.7,5.7
		c0,0,2.9,4.5,4,6.2c0.5,0.8,0.2,1-0.3,1.3c-1.2,0.7-1.7,1.1-2.7,1.7c-0.5,0.3-1.2,0.7-1.7,0c-0.5-0.8-1.8-2.7-2.2-3.5
		c-0.2-0.3-0.6-0.1-1,0.1c-0.2,0.1-0.6,0.3-0.8,0.5c0,0,3.2,5,4,6.2c0.1,0.2,1.6,0.7,3.8,1.4c0.7,0.2,1.6,2,2.3,2.3
		c1.4,0.6,2.8,3.3,3.2,3.4c2.5,0.4,4.9,1,7.9,1.4c1,0.1,3,3.4,4,3.5c11.2,1.5,27.8,5.4,28.9,5.6c3.2,0.7,3.9-4.1,11-1.6
		c4.1,1.5,4,2.9,4.5,5.3c0.1,0.7,1.1,0.9,1.8,1c1,0.3,1.9,0.4,2.5,0.6c1.3,0.3-0.3,5.3-0.5,5.2c-5.3-1.5-22.8-5-35.8-7.5
		c-8.6-1.7-1.8,3.5-7.8,2.5c-0.9-0.1-9.3-3.1-10.1-1.7c-0.5,0.8-3.4,5.6-1.6,6.2c2.1,0.8,4.7,1.7,6.9,2.6c3.7,1.5,7.2,1.3,8.9,0
		c4.8-3.4,7.4-2.5,5.9-0.3c-3.9,5.8-7.5,7-13.6,6c-11.2-1.8-34.5-12.2-47.6-15.7c-3.8-1-0.7,3.2-7.5,1c-5.6-1.8-3-4.1-7.4-5.6
		c-8.3-2.8-7.9-4.7-14.9-0.3c-22.4,14.4-16.5,11.7-26.6,11.1c-15.1-0.8-28.4,0.8-41.6,8.2c-6.4,3.6-5,1.6-1.9,7.2
		c0.4,1.4-2,4.5-0.3,7.2C574.8,482.1,576,479.8,584.4,485.3z"/>
	<path class="st3" d="M1084.2,211.9c-28.2-18.6,15.8-46.9,22.3-19.6c2.6,11.1,1.1,14.6,4.5,19.9c2.7,4.3,6.8,2.1,7.8,3.7
		c2.9,4.6,1.9,5,4.9,3.4c12.1-6.6,25.8-15.8,38.2-21c8.9-3.7,12.6,6.1,12.6,6.1L814.3,430.9c0,0-8.1-8.4,6.3-17.5
		c13.9-8.8,96.2-64.8,96.2-64.8s-8.1-8.4-12.1-24.3c-3.5-13.8-3.3-19-0.2-38.9c0.7-4.8-4.4-15.3-16.3-12.1c-7.4,2-18.9,1.9-10.1-3.9
		c1.8-1.2,3.5-2.4,8.2-4.1c12.3-4.5,24.9-6.8,40.7-2.3c7.6,2.2,5.7-0.7,3.6,18.3c-1.3,11.7-0.1,44.5,15.9,34.4
		c13.6-8.6,18.5-9.1,20.3-8.5c0.8,0.3,1.8,0.1,2.3-0.6c3-3.6,10-12.2,9.1-13.7c-0.9-1.4-3.4-5.4-3.4-5.4c-5.4-0.6-3.7-5.8-3.7-5.8
		c0,0-2.9-4.6-3.9-6.2c-0.5-0.8-0.2-1,0.3-1.3c1.2-0.7,1.8-1.1,2.7-1.7c0.5-0.3,1.2-0.7,1.7,0c0.5,0.8,1.7,2.8,2.2,3.5
		c0.2,0.3,0.6,0.1,1-0.1c0.2-0.1,0.6-0.3,0.8-0.5c0,0-3.2-5-3.9-6.2c-0.1-0.2-1.6-0.7-3.8-1.4c-0.7-0.2-1.6-2-2.3-2.3
		c-1.4-0.6-2.7-3.3-3.2-3.4c-2.5-0.4-4.9-1-7.9-1.5c-1-0.1-3-3.4-4-3.5c-11.2-1.6-27.8-5.6-28.9-5.8c-3.2-0.7-3.9,4.1-11,1.5
		c-4.1-1.5-4-2.9-4.5-5.3c-0.1-0.7-1.1-0.9-1.8-1.1c-1-0.3-1.9-0.4-2.5-0.6c-1.3-0.3,0.3-5.3,0.5-5.2c5.3,1.5,22.8,5.1,35.8,7.7
		c8.6,1.7,1.8-3.5,7.9-2.5c0.9,0.2,9.3,3.2,10.1,1.7c0.5-0.8,3.4-5.5,1.6-6.2c-2.1-0.8-4.7-1.8-6.9-2.7c-3.7-1.5-7.2-1.3-8.9-0.1
		c-4.9,3.4-7.4,2.5-5.9,0.3c3.9-5.8,7.5-6.9,13.6-5.9c11.2,1.9,34.4,12.4,47.5,16c3.8,1,0.7-3.2,7.5-1c5.6,1.8,3,4.1,7.4,5.6
		c8.3,2.9,7.9,4.8,14.9,0.3c22.5-14.2,16.5-11.6,26.7-10.9c15.1,0.9,28.4-0.6,41.6-7.9c6.4-3.5,5-1.5,1.9-7.2
		c-0.3-1.4,2-4.5,0.3-7.2C1093.8,215.1,1092.5,217.4,1084.2,211.9z"/>
	<path class="st3" d="M1047,197.8c28.3,18.4-15.6,47-22.2,19.7c-2.7-11.1-1.2-14.6-4.6-19.9c-2.7-4.2-6.8-2.1-7.8-3.7
		c-3-4.6-2-5-4.9-3.4c-12.1,6.7-25.7,15.9-38.1,21.2c-8.9,3.8-12.6-6.1-12.6-6.1l358.9-228.5c0,0,8.1,8.4-6.2,17.6
		c-13.9,8.9-95.8,65.3-95.8,65.3s8.1,8.4,12.3,24.2c3.6,13.8,3.4,18.9,0.5,38.9c-0.7,4.8,4.5,15.3,16.4,12c7.4-2,18.9-2,10.1,3.9
		c-1.8,1.2-3.5,2.4-8.2,4.2c-12.3,4.6-24.9,7-40.7,2.5c-7.6-2.1-5.7,0.8-3.7-18.3c1.2-11.7-0.2-44.5-16.1-34.3
		c-13.6,8.7-18.5,9.2-20.2,8.6c-0.8-0.3-1.8,0-2.3,0.6c-3,3.6-10,12.2-9,13.7c0.9,1.4,3.5,5.4,3.5,5.4c5.4,0.5,3.7,5.8,3.7,5.7
		c0,0,2.9,4.5,4,6.2c0.5,0.8,0.2,1-0.3,1.3c-1.2,0.7-1.7,1.1-2.7,1.7c-0.5,0.3-1.2,0.7-1.7,0c-0.5-0.8-1.8-2.7-2.2-3.5
		c-0.2-0.3-0.6-0.1-1,0.1c-0.2,0.1-0.6,0.3-0.8,0.5c0,0,3.2,5,4,6.2c0.1,0.2,1.6,0.7,3.8,1.4c0.7,0.2,1.6,2,2.3,2.3
		c1.4,0.6,2.8,3.3,3.2,3.4c2.5,0.4,4.9,1,7.9,1.4c1,0.1,3,3.4,4,3.5c11.2,1.5,27.8,5.4,28.9,5.6c3.2,0.7,3.9-4.1,11-1.6
		c4.1,1.5,4,2.9,4.5,5.3c0.1,0.7,1.1,0.9,1.8,1c1,0.3,1.9,0.4,2.5,0.6c1.3,0.3-0.3,5.3-0.5,5.2c-5.3-1.5-22.8-5-35.8-7.5
		c-8.6-1.7-1.8,3.5-7.8,2.5c-0.9-0.1-9.3-3.1-10.1-1.7c-0.5,0.8-3.4,5.6-1.6,6.2c2.1,0.8,4.7,1.7,6.9,2.6c3.7,1.5,7.2,1.3,8.9,0
		c4.8-3.4,7.4-2.5,5.9-0.3c-3.9,5.8-7.5,7-13.6,6c-11.2-1.8-34.5-12.2-47.6-15.7c-3.8-1-0.7,3.2-7.5,1c-5.6-1.8-3-4.1-7.4-5.6
		c-8.3-2.8-7.9-4.7-14.9-0.3c-22.4,14.4-16.5,11.7-26.6,11.1c-15.1-0.8-28.4,0.8-41.6,8.2c-6.4,3.6-5,1.6-1.9,7.2
		c0.4,1.4-2,4.5-0.3,7.2C1037.4,194.7,1038.6,192.3,1047,197.8z"/>
</g>
<g class="st1">
	<path class="st3" d="M961.5,462.3c-28.2-18.6,15.8-46.9,22.3-19.6c2.6,11.1,1.1,14.6,4.5,19.9c2.7,4.3,6.8,2.1,7.8,3.7
		c2.9,4.6,1.9,5,4.9,3.4c12.1-6.6,25.8-15.8,38.2-21c8.9-3.7,12.6,6.1,12.6,6.1L691.6,681.4c0,0-8.1-8.4,6.3-17.5
		c13.9-8.8,96.2-64.8,96.2-64.8s-8.1-8.4-12.1-24.3c-3.5-13.8-3.3-19-0.2-38.9c0.7-4.8-4.4-15.3-16.3-12.1c-7.4,2-18.9,1.9-10.1-3.9
		c1.8-1.2,3.5-2.4,8.2-4.1c12.3-4.5,24.9-6.8,40.7-2.3c7.6,2.2,5.7-0.7,3.6,18.3c-1.3,11.7-0.1,44.5,15.9,34.4
		c13.6-8.6,18.5-9.1,20.3-8.5c0.8,0.3,1.8,0.1,2.3-0.6c3-3.6,10-12.2,9.1-13.7c-0.9-1.4-3.4-5.4-3.4-5.4c-5.4-0.6-3.7-5.8-3.7-5.8
		c0,0-2.9-4.6-3.9-6.2c-0.5-0.8-0.2-1,0.3-1.3c1.2-0.7,1.8-1.1,2.7-1.7c0.5-0.3,1.2-0.7,1.7,0c0.5,0.8,1.7,2.8,2.2,3.5
		c0.2,0.3,0.6,0.1,1-0.1c0.2-0.1,0.6-0.3,0.8-0.5c0,0-3.2-5-3.9-6.2c-0.1-0.2-1.6-0.7-3.8-1.4c-0.7-0.2-1.6-2-2.3-2.3
		c-1.4-0.6-2.7-3.3-3.2-3.4c-2.5-0.4-4.9-1-7.9-1.5c-1-0.1-3-3.4-4-3.5c-11.2-1.6-27.8-5.6-28.9-5.8c-3.2-0.7-3.9,4.1-11,1.5
		c-4.1-1.5-4-2.9-4.5-5.3c-0.1-0.7-1.1-0.9-1.8-1.1c-1-0.3-1.9-0.4-2.5-0.6c-1.3-0.3,0.3-5.3,0.5-5.2c5.3,1.5,22.8,5.1,35.8,7.7
		c8.6,1.7,1.8-3.5,7.9-2.5c0.9,0.2,9.3,3.2,10.1,1.7c0.5-0.8,3.4-5.5,1.6-6.2c-2.1-0.8-4.7-1.8-6.9-2.7c-3.7-1.5-7.2-1.3-8.9-0.1
		c-4.9,3.4-7.4,2.5-5.9,0.3c3.9-5.8,7.5-6.9,13.6-5.9c11.2,1.9,34.4,12.4,47.5,16c3.8,1,0.7-3.2,7.5-1c5.6,1.8,3,4.1,7.4,5.6
		c8.3,2.9,7.9,4.8,14.9,0.3c22.5-14.2,16.5-11.6,26.7-10.9c15.1,0.9,28.4-0.6,41.6-7.9c6.4-3.5,5-1.5,1.9-7.2
		c-0.3-1.4,2-4.5,0.3-7.2C971.2,465.5,969.9,467.9,961.5,462.3z"/>
	<path class="st3" d="M924.4,448.3c28.3,18.4-15.6,47-22.2,19.7c-2.7-11.1-1.2-14.6-4.6-19.9c-2.7-4.2-6.8-2.1-7.8-3.7
		c-3-4.6-2-5-4.9-3.4c-12.1,6.7-25.7,15.9-38.1,21.2c-8.9,3.8-12.6-6.1-12.6-6.1L1193,227.6c0,0,8.1,8.4-6.2,17.6
		c-13.9,8.9-95.8,65.3-95.8,65.3s8.1,8.4,12.3,24.2c3.6,13.8,3.4,18.9,0.5,38.9c-0.7,4.8,4.5,15.3,16.4,12c7.4-2,18.9-2,10.1,3.9
		c-1.8,1.2-3.5,2.4-8.2,4.2c-12.3,4.6-24.9,7-40.7,2.5c-7.6-2.1-5.7,0.8-3.7-18.3c1.2-11.7-0.2-44.5-16.1-34.3
		c-13.6,8.7-18.5,9.2-20.2,8.6c-0.8-0.3-1.8,0-2.3,0.6c-3,3.6-10,12.2-9,13.7c0.9,1.4,3.5,5.4,3.5,5.4c5.4,0.5,3.7,5.8,3.7,5.7
		c0,0,2.9,4.5,4,6.2c0.5,0.8,0.2,1-0.3,1.3c-1.2,0.7-1.7,1.1-2.7,1.7c-0.5,0.3-1.2,0.7-1.7,0c-0.5-0.8-1.8-2.7-2.2-3.5
		c-0.2-0.3-0.6-0.1-1,0.1c-0.2,0.1-0.6,0.3-0.8,0.5c0,0,3.2,5,4,6.2c0.1,0.2,1.6,0.7,3.8,1.4c0.7,0.2,1.6,2,2.3,2.3
		c1.4,0.6,2.8,3.3,3.2,3.4c2.5,0.4,4.9,1,7.9,1.4c1,0.1,3,3.4,4,3.5c11.2,1.5,27.8,5.4,28.9,5.6c3.2,0.7,3.9-4.1,11-1.6
		c4.1,1.5,4,2.9,4.5,5.3c0.1,0.7,1.1,0.9,1.8,1c1,0.3,1.9,0.4,2.5,0.6c1.3,0.3-0.3,5.3-0.5,5.2c-5.3-1.5-22.8-5-35.8-7.5
		c-8.6-1.7-1.8,3.5-7.8,2.5c-0.9-0.1-9.3-3.1-10.1-1.7c-0.5,0.8-3.4,5.6-1.6,6.2c2.1,0.8,4.7,1.7,6.9,2.6c3.7,1.5,7.2,1.3,8.9,0
		c4.8-3.4,7.4-2.5,5.9-0.3c-3.9,5.8-7.5,7-13.6,6c-11.2-1.8-34.5-12.2-47.6-15.7c-3.8-1-0.7,3.2-7.5,1c-5.6-1.8-3-4.1-7.4-5.6
		c-8.3-2.8-7.9-4.7-14.9-0.3c-22.4,14.4-16.5,11.7-26.6,11.1c-15.1-0.8-28.4,0.8-41.6,8.2c-6.4,3.6-5,1.6-1.9,7.2
		c0.4,1.4-2,4.5-0.3,7.2C914.8,445.1,916,442.8,924.4,448.3z"/>
	<path class="st3" d="M1424.2,174.9c-28.2-18.6,15.8-46.9,22.3-19.6c2.6,11.1,1.1,14.6,4.5,19.9c2.7,4.3,6.8,2.1,7.8,3.7
		c2.9,4.6,1.9,5,4.9,3.4c12.1-6.6,25.8-15.8,38.2-21c8.9-3.7,12.6,6.1,12.6,6.1l-360.2,226.4c0,0-8.1-8.4,6.3-17.5
		c13.9-8.8,96.2-64.8,96.2-64.8s-8.1-8.4-12.1-24.3c-3.5-13.8-3.3-19-0.2-38.9c0.7-4.8-4.4-15.3-16.3-12.1c-7.4,2-18.9,1.9-10.1-3.9
		c1.8-1.2,3.5-2.4,8.2-4.1c12.3-4.5,24.9-6.8,40.7-2.3c7.6,2.2,5.7-0.7,3.6,18.3c-1.3,11.7-0.1,44.5,15.9,34.4
		c13.6-8.6,18.5-9.1,20.3-8.5c0.8,0.3,1.8,0.1,2.3-0.6c3-3.6,10-12.2,9.1-13.7c-0.9-1.4-3.4-5.4-3.4-5.4c-5.4-0.6-3.7-5.8-3.7-5.8
		c0,0-2.9-4.6-3.9-6.2c-0.5-0.8-0.2-1,0.3-1.3c1.2-0.7,1.8-1.1,2.7-1.7c0.5-0.3,1.2-0.7,1.7,0c0.5,0.8,1.7,2.8,2.2,3.5
		c0.2,0.3,0.6,0.1,1-0.1c0.2-0.1,0.6-0.3,0.8-0.5c0,0-3.2-5-3.9-6.2c-0.1-0.2-1.6-0.7-3.8-1.4c-0.7-0.2-1.6-2-2.3-2.3
		c-1.4-0.6-2.7-3.3-3.2-3.4c-2.5-0.4-4.9-1-7.9-1.5c-1-0.1-3-3.4-4-3.5c-11.2-1.6-27.8-5.6-28.9-5.8c-3.2-0.7-3.9,4.1-11,1.5
		c-4.1-1.5-4-2.9-4.5-5.3c-0.1-0.7-1.1-0.9-1.8-1.1c-1-0.3-1.9-0.4-2.5-0.6c-1.3-0.3,0.3-5.3,0.5-5.2c5.3,1.5,22.8,5.1,35.8,7.7
		c8.6,1.7,1.8-3.5,7.9-2.5c0.9,0.2,9.3,3.2,10.1,1.7c0.5-0.8,3.4-5.5,1.6-6.2c-2.1-0.8-4.7-1.8-6.9-2.7c-3.7-1.5-7.2-1.3-8.9-0.1
		c-4.9,3.4-7.4,2.5-5.9,0.3c3.9-5.8,7.5-6.9,13.6-5.9c11.2,1.9,34.4,12.4,47.5,16c3.8,1,0.7-3.2,7.5-1c5.6,1.8,3,4.1,7.4,5.6
		c8.3,2.9,7.9,4.8,14.9,0.3c22.5-14.2,16.5-11.6,26.7-10.9c15.1,0.9,28.4-0.6,41.6-7.9c6.4-3.5,5-1.5,1.9-7.2
		c-0.3-1.4,2-4.5,0.3-7.2C1433.8,178.1,1432.5,180.4,1424.2,174.9z"/>
	<path class="st3" d="M1387,160.8c28.3,18.4-15.6,47-22.2,19.7c-2.7-11.1-1.2-14.6-4.6-19.9c-2.7-4.2-6.8-2.1-7.8-3.7
		c-3-4.6-2-5-4.9-3.4c-12.1,6.7-25.7,15.9-38.1,21.2c-8.9,3.8-12.6-6.1-12.6-6.1l358.9-228.5c0,0,8.1,8.4-6.2,17.6
		c-13.9,8.9-95.8,65.3-95.8,65.3s8.1,8.4,12.3,24.2c3.6,13.8,3.4,18.9,0.5,38.9c-0.7,4.8,4.5,15.3,16.4,12c7.4-2,18.9-2,10.1,3.9
		c-1.8,1.2-3.5,2.4-8.2,4.2c-12.3,4.6-24.9,7-40.7,2.5c-7.6-2.1-5.7,0.8-3.7-18.3c1.2-11.7-0.2-44.5-16.1-34.3
		c-13.6,8.7-18.5,9.2-20.2,8.6c-0.8-0.3-1.8,0-2.3,0.6c-3,3.6-10,12.2-9,13.7c0.9,1.4,3.5,5.4,3.5,5.4c5.4,0.5,3.7,5.8,3.7,5.7
		c0,0,2.9,4.5,4,6.2c0.5,0.8,0.2,1-0.3,1.3c-1.2,0.7-1.7,1.1-2.7,1.7c-0.5,0.3-1.2,0.7-1.7,0c-0.5-0.8-1.8-2.7-2.2-3.5
		c-0.2-0.3-0.6-0.1-1,0.1c-0.2,0.1-0.6,0.3-0.8,0.5c0,0,3.2,5,4,6.2c0.1,0.2,1.6,0.7,3.8,1.4c0.7,0.2,1.6,2,2.3,2.3
		c1.4,0.6,2.8,3.3,3.2,3.4c2.5,0.4,4.9,1,7.9,1.4c1,0.1,3,3.4,4,3.5c11.2,1.5,27.8,5.4,28.9,5.6c3.2,0.7,3.9-4.1,11-1.6
		c4.1,1.5,4,2.9,4.5,5.3c0.1,0.7,1.1,0.9,1.8,1c1,0.3,1.9,0.4,2.5,0.6c1.3,0.3-0.3,5.3-0.5,5.2c-5.3-1.5-22.8-5-35.8-7.5
		c-8.6-1.7-1.8,3.5-7.8,2.5c-0.9-0.1-9.3-3.1-10.1-1.7c-0.5,0.8-3.4,5.6-1.6,6.2c2.1,0.8,4.7,1.7,6.9,2.6c3.7,1.5,7.2,1.3,8.9,0
		c4.8-3.4,7.4-2.5,5.9-0.3c-3.9,5.8-7.5,7-13.6,6c-11.2-1.8-34.5-12.2-47.6-15.7c-3.8-1-0.7,3.2-7.5,1c-5.6-1.8-3-4.1-7.4-5.6
		c-8.3-2.8-7.9-4.7-14.9-0.3c-22.4,14.4-16.5,11.7-26.6,11.1c-15.1-0.8-28.4,0.8-41.6,8.2c-6.4,3.6-5,1.6-1.9,7.2
		c0.4,1.4-2,4.5-0.3,7.2C1377.4,157.7,1378.6,155.3,1387,160.8z"/>
</g>
<g class="st1">
	<path class="st3" d="M1302.5,426.3c-28.2-18.6,15.8-46.9,22.3-19.6c2.6,11.1,1.1,14.6,4.5,19.9c2.7,4.3,6.8,2.1,7.8,3.7
		c2.9,4.6,1.9,5,4.9,3.4c12.1-6.6,25.8-15.8,38.2-21c8.9-3.7,12.6,6.1,12.6,6.1l-360.2,226.4c0,0-8.1-8.4,6.3-17.5
		c13.9-8.8,96.2-64.8,96.2-64.8s-8.1-8.4-12.1-24.3c-3.5-13.8-3.3-19-0.2-38.9c0.7-4.8-4.4-15.3-16.3-12.1c-7.4,2-18.9,1.9-10.1-3.9
		c1.8-1.2,3.5-2.4,8.2-4.1c12.3-4.5,24.9-6.8,40.7-2.3c7.6,2.2,5.7-0.7,3.6,18.3c-1.3,11.7-0.1,44.5,15.9,34.4
		c13.6-8.6,18.5-9.1,20.3-8.5c0.8,0.3,1.8,0.1,2.3-0.6c3-3.6,10-12.2,9.1-13.7c-0.9-1.4-3.4-5.4-3.4-5.4c-5.4-0.6-3.7-5.8-3.7-5.8
		c0,0-2.9-4.6-3.9-6.2c-0.5-0.8-0.2-1,0.3-1.3c1.2-0.7,1.8-1.1,2.7-1.7c0.5-0.3,1.2-0.7,1.7,0c0.5,0.8,1.7,2.8,2.2,3.5
		c0.2,0.3,0.6,0.1,1-0.1c0.2-0.1,0.6-0.3,0.8-0.5c0,0-3.2-5-3.9-6.2c-0.1-0.2-1.6-0.7-3.8-1.4c-0.7-0.2-1.6-2-2.3-2.3
		c-1.4-0.6-2.7-3.3-3.2-3.4c-2.5-0.4-4.9-1-7.9-1.5c-1-0.1-3-3.4-4-3.5c-11.2-1.6-27.8-5.6-28.9-5.8c-3.2-0.7-3.9,4.1-11,1.5
		c-4.1-1.5-4-2.9-4.5-5.3c-0.1-0.7-1.1-0.9-1.8-1.1c-1-0.3-1.9-0.4-2.5-0.6c-1.3-0.3,0.3-5.3,0.5-5.2c5.3,1.5,22.8,5.1,35.8,7.7
		c8.6,1.7,1.8-3.5,7.9-2.5c0.9,0.2,9.3,3.2,10.1,1.7c0.5-0.8,3.4-5.5,1.6-6.2c-2.1-0.8-4.7-1.8-6.9-2.7c-3.7-1.5-7.2-1.3-8.9-0.1
		c-4.9,3.4-7.4,2.5-5.9,0.3c3.9-5.8,7.5-6.9,13.6-5.9c11.2,1.9,34.4,12.4,47.5,16c3.8,1,0.7-3.2,7.5-1c5.6,1.8,3,4.1,7.4,5.6
		c8.3,2.9,7.9,4.8,14.9,0.3c22.5-14.2,16.5-11.6,26.7-10.9c15.1,0.9,28.4-0.6,41.6-7.9c6.4-3.5,5-1.5,1.9-7.2
		c-0.3-1.4,2-4.5,0.3-7.2C1312.2,429.5,1310.9,431.9,1302.5,426.3z"/>
	<path class="st3" d="M1265.4,412.3c28.3,18.4-15.6,47-22.2,19.7c-2.7-11.1-1.2-14.6-4.6-19.9c-2.7-4.2-6.8-2.1-7.8-3.7
		c-3-4.6-2-5-4.9-3.4c-12.1,6.7-25.7,15.9-38.1,21.2c-8.9,3.8-12.6-6.1-12.6-6.1L1534,191.6c0,0,8.1,8.4-6.2,17.6
		c-13.9,8.9-95.8,65.3-95.8,65.3s8.1,8.4,12.3,24.2c3.6,13.8,3.4,18.9,0.5,38.9c-0.7,4.8,4.5,15.3,16.4,12c7.4-2,18.9-2,10.1,3.9
		c-1.8,1.2-3.5,2.4-8.2,4.2c-12.3,4.6-24.9,7-40.7,2.5c-7.6-2.1-5.7,0.8-3.7-18.3c1.2-11.7-0.2-44.5-16.1-34.3
		c-13.6,8.7-18.5,9.2-20.2,8.6c-0.8-0.3-1.8,0-2.3,0.6c-3,3.6-10,12.2-9,13.7c0.9,1.4,3.5,5.4,3.5,5.4c5.4,0.5,3.7,5.8,3.7,5.7
		c0,0,2.9,4.5,4,6.2c0.5,0.8,0.2,1-0.3,1.3c-1.2,0.7-1.7,1.1-2.7,1.7c-0.5,0.3-1.2,0.7-1.7,0c-0.5-0.8-1.8-2.7-2.2-3.5
		c-0.2-0.3-0.6-0.1-1,0.1c-0.2,0.1-0.6,0.3-0.8,0.5c0,0,3.2,5,4,6.2c0.1,0.2,1.6,0.7,3.8,1.4c0.7,0.2,1.6,2,2.3,2.3
		c1.4,0.6,2.8,3.3,3.2,3.4c2.5,0.4,4.9,1,7.9,1.4c1,0.1,3,3.4,4,3.5c11.2,1.5,27.8,5.4,28.9,5.6c3.2,0.7,3.9-4.1,11-1.6
		c4.1,1.5,4,2.9,4.5,5.3c0.1,0.7,1.1,0.9,1.8,1c1,0.3,1.9,0.4,2.5,0.6c1.3,0.3-0.3,5.3-0.5,5.2c-5.3-1.5-22.8-5-35.8-7.5
		c-8.6-1.7-1.8,3.5-7.8,2.5c-0.9-0.1-9.3-3.1-10.1-1.7c-0.5,0.8-3.4,5.6-1.6,6.2c2.1,0.8,4.7,1.7,6.9,2.6c3.7,1.5,7.2,1.3,8.9,0
		c4.8-3.4,7.4-2.5,5.9-0.3c-3.9,5.8-7.5,7-13.6,6c-11.2-1.8-34.5-12.2-47.6-15.7c-3.8-1-0.7,3.2-7.5,1c-5.6-1.8-3-4.1-7.4-5.6
		c-8.3-2.8-7.9-4.7-14.9-0.3c-22.4,14.4-16.5,11.7-26.6,11.1c-15.1-0.8-28.4,0.8-41.6,8.2c-6.4,3.6-5,1.6-1.9,7.2
		c0.4,1.4-2,4.5-0.3,7.2C1255.8,409.1,1257,406.8,1265.4,412.3z"/>
	<path class="st3" d="M1765.2,138.9c-28.2-18.6,15.8-46.9,22.3-19.6c2.6,11.1,1.1,14.6,4.5,19.9c2.7,4.3,6.8,2.1,7.8,3.7
		c2.9,4.6,1.9,5,4.9,3.4c12.1-6.6,25.8-15.8,38.2-21c8.9-3.7,12.6,6.1,12.6,6.1l-360.2,226.4c0,0-8.1-8.4,6.3-17.5
		c13.9-8.8,96.2-64.8,96.2-64.8s-8.1-8.4-12.1-24.3c-3.5-13.8-3.3-19-0.2-38.9c0.7-4.8-4.4-15.3-16.3-12.1c-7.4,2-18.9,1.9-10.1-3.9
		c1.8-1.2,3.5-2.4,8.2-4.1c12.3-4.5,24.9-6.8,40.7-2.3c7.6,2.2,5.7-0.7,3.6,18.3c-1.3,11.7-0.1,44.5,15.9,34.4
		c13.6-8.6,18.5-9.1,20.3-8.5c0.8,0.3,1.8,0.1,2.3-0.6c3-3.6,10-12.2,9.1-13.7c-0.9-1.4-3.4-5.4-3.4-5.4c-5.4-0.6-3.7-5.8-3.7-5.8
		c0,0-2.9-4.6-3.9-6.2c-0.5-0.8-0.2-1,0.3-1.3c1.2-0.7,1.8-1.1,2.7-1.7c0.5-0.3,1.2-0.7,1.7,0c0.5,0.8,1.7,2.8,2.2,3.5
		c0.2,0.3,0.6,0.1,1-0.1c0.2-0.1,0.6-0.3,0.8-0.5c0,0-3.2-5-3.9-6.2c-0.1-0.2-1.6-0.7-3.8-1.4c-0.7-0.2-1.6-2-2.3-2.3
		c-1.4-0.6-2.7-3.3-3.2-3.4c-2.5-0.4-4.9-1-7.9-1.5c-1-0.1-3-3.4-4-3.5c-11.2-1.6-27.8-5.6-28.9-5.8c-3.2-0.7-3.9,4.1-11,1.5
		c-4.1-1.5-4-2.9-4.5-5.3c-0.1-0.7-1.1-0.9-1.8-1.1c-1-0.3-1.9-0.4-2.5-0.6c-1.3-0.3,0.3-5.3,0.5-5.2c5.3,1.5,22.8,5.1,35.8,7.7
		c8.6,1.7,1.8-3.5,7.9-2.5c0.9,0.2,9.3,3.2,10.1,1.7c0.5-0.8,3.4-5.5,1.6-6.2c-2.1-0.8-4.7-1.8-6.9-2.7c-3.7-1.5-7.2-1.3-8.9-0.1
		c-4.9,3.4-7.4,2.5-5.9,0.3c3.9-5.8,7.5-6.9,13.6-5.9c11.2,1.9,34.4,12.4,47.5,16c3.8,1,0.7-3.2,7.5-1c5.6,1.8,3,4.1,7.4,5.6
		c8.3,2.9,7.9,4.8,14.9,0.3c22.5-14.2,16.5-11.6,26.7-10.9c15.1,0.9,28.4-0.6,41.6-7.9c6.4-3.5,5-1.5,1.9-7.2
		c-0.3-1.4,2-4.5,0.3-7.2C1774.8,142.1,1773.5,144.4,1765.2,138.9z"/>
	<path class="st3" d="M1728,124.8c28.3,18.4-15.6,47-22.2,19.7c-2.7-11.1-1.2-14.6-4.6-19.9c-2.7-4.2-6.8-2.1-7.8-3.7
		c-3-4.6-2-5-4.9-3.4c-12.1,6.7-25.7,15.9-38.1,21.2c-8.9,3.8-12.6-6.1-12.6-6.1l358.9-228.5c0,0,8.1,8.4-6.2,17.6
		c-13.9,8.9-95.8,65.3-95.8,65.3s8.1,8.4,12.3,24.2c3.6,13.8,3.4,18.9,0.5,38.9c-0.7,4.8,4.5,15.3,16.4,12c7.4-2,18.9-2,10.1,3.9
		c-1.8,1.2-3.5,2.4-8.2,4.2c-12.3,4.6-24.9,7-40.7,2.5c-7.6-2.1-5.7,0.8-3.7-18.3c1.2-11.7-0.2-44.5-16.1-34.3
		c-13.6,8.7-18.5,9.2-20.2,8.6c-0.8-0.3-1.8,0-2.3,0.6c-3,3.6-10,12.2-9,13.7c0.9,1.4,3.5,5.4,3.5,5.4c5.4,0.5,3.7,5.8,3.7,5.7
		s2.9,4.5,4,6.2c0.5,0.8,0.2,1-0.3,1.3c-1.2,0.7-1.7,1.1-2.7,1.7c-0.5,0.3-1.2,0.7-1.7,0c-0.5-0.8-1.8-2.7-2.2-3.5
		c-0.2-0.3-0.6-0.1-1,0.1c-0.2,0.1-0.6,0.3-0.8,0.5c0,0,3.2,5,4,6.2c0.1,0.2,1.6,0.7,3.8,1.4c0.7,0.2,1.6,2,2.3,2.3
		c1.4,0.6,2.8,3.3,3.2,3.4c2.5,0.4,4.9,1,7.9,1.4c1,0.1,3,3.4,4,3.5c11.2,1.5,27.8,5.4,28.9,5.6c3.2,0.7,3.9-4.1,11-1.6
		c4.1,1.5,4,2.9,4.5,5.3c0.1,0.7,1.1,0.9,1.8,1c1,0.3,1.9,0.4,2.5,0.6c1.3,0.3-0.3,5.3-0.5,5.2c-5.3-1.5-22.8-5-35.8-7.5
		c-8.6-1.7-1.8,3.5-7.8,2.5c-0.9-0.1-9.3-3.1-10.1-1.7c-0.5,0.8-3.4,5.6-1.6,6.2c2.1,0.8,4.7,1.7,6.9,2.6c3.7,1.5,7.2,1.3,8.9,0
		c4.8-3.4,7.4-2.5,5.9-0.3c-3.9,5.8-7.5,7-13.6,6c-11.2-1.8-34.5-12.2-47.6-15.7c-3.8-1-0.7,3.2-7.5,1c-5.6-1.8-3-4.1-7.4-5.6
		c-8.3-2.8-7.9-4.7-14.9-0.3c-22.4,14.4-16.5,11.7-26.6,11.1c-15.1-0.8-28.4,0.8-41.6,8.2c-6.4,3.6-5,1.6-1.9,7.2
		c0.4,1.4-2,4.5-0.3,7.2C1718.4,121.7,1719.6,119.3,1728,124.8z"/>
</g>
<g class="st1">
	<path class="st3" d="M1180.5,678.3c-28.2-18.6,15.8-46.9,22.3-19.6c2.6,11.1,1.1,14.6,4.5,19.9c2.7,4.3,6.8,2.1,7.8,3.7
		c2.9,4.6,1.9,5,4.9,3.4c12.1-6.6,25.8-15.8,38.2-21c8.9-3.7,12.6,6.1,12.6,6.1L910.6,897.4c0,0-8.1-8.4,6.3-17.5
		c13.9-8.8,96.2-64.8,96.2-64.8s-8.1-8.4-12.1-24.3c-3.5-13.8-3.3-19-0.2-38.9c0.7-4.8-4.4-15.3-16.3-12.1c-7.4,2-18.9,1.9-10.1-3.9
		c1.8-1.2,3.5-2.4,8.2-4.1c12.3-4.5,24.9-6.8,40.7-2.3c7.6,2.2,5.7-0.7,3.6,18.3c-1.3,11.7-0.1,44.5,15.9,34.4
		c13.6-8.6,18.5-9.1,20.3-8.5c0.8,0.3,1.8,0.1,2.3-0.6c3-3.6,10-12.2,9.1-13.7c-0.9-1.4-3.4-5.4-3.4-5.4c-5.4-0.6-3.7-5.8-3.7-5.8
		c0,0-2.9-4.6-3.9-6.2c-0.5-0.8-0.2-1,0.3-1.3c1.2-0.7,1.8-1.1,2.7-1.7c0.5-0.3,1.2-0.7,1.7,0c0.5,0.8,1.7,2.8,2.2,3.5
		c0.2,0.3,0.6,0.1,1-0.1c0.2-0.1,0.6-0.3,0.8-0.5c0,0-3.2-5-3.9-6.2c-0.1-0.2-1.6-0.7-3.8-1.4c-0.7-0.2-1.6-2-2.3-2.3
		c-1.4-0.6-2.7-3.3-3.2-3.4c-2.5-0.4-4.9-1-7.9-1.5c-1-0.1-3-3.4-4-3.5c-11.2-1.6-27.8-5.6-28.9-5.8c-3.2-0.7-3.9,4.1-11,1.5
		c-4.1-1.5-4-2.9-4.5-5.3c-0.1-0.7-1.1-0.9-1.8-1.1c-1-0.3-1.9-0.4-2.5-0.6c-1.3-0.3,0.3-5.3,0.5-5.2c5.3,1.5,22.8,5.1,35.8,7.7
		c8.6,1.7,1.8-3.5,7.9-2.5c0.9,0.2,9.3,3.2,10.1,1.7c0.5-0.8,3.4-5.5,1.6-6.2c-2.1-0.8-4.7-1.8-6.9-2.7c-3.7-1.5-7.2-1.3-8.9-0.1
		c-4.9,3.4-7.4,2.5-5.9,0.3c3.9-5.8,7.5-6.9,13.6-5.9c11.2,1.9,34.4,12.4,47.5,16c3.8,1,0.7-3.2,7.5-1c5.6,1.8,3,4.1,7.4,5.6
		c8.3,2.9,7.9,4.8,14.9,0.3c22.5-14.2,16.5-11.6,26.7-10.9c15.1,0.9,28.4-0.6,41.6-7.9c6.4-3.5,5-1.5,1.9-7.2
		c-0.3-1.4,2-4.5,0.3-7.2C1190.2,681.5,1188.9,683.9,1180.5,678.3z"/>
	<path class="st3" d="M1143.4,664.3c28.3,18.4-15.6,47-22.2,19.7c-2.7-11.1-1.2-14.6-4.6-19.9c-2.7-4.2-6.8-2.1-7.8-3.7
		c-3-4.6-2-5-4.9-3.4c-12.1,6.7-25.7,15.9-38.1,21.2c-8.9,3.8-12.6-6.1-12.6-6.1L1412,443.6c0,0,8.1,8.4-6.2,17.6
		c-13.9,8.9-95.8,65.3-95.8,65.3s8.1,8.4,12.3,24.2c3.6,13.8,3.4,18.9,0.5,38.9c-0.7,4.8,4.5,15.3,16.4,12c7.4-2,18.9-2,10.1,3.9
		c-1.8,1.2-3.5,2.4-8.2,4.2c-12.3,4.6-24.9,7-40.7,2.5c-7.6-2.1-5.7,0.8-3.7-18.3c1.2-11.7-0.2-44.5-16.1-34.3
		c-13.6,8.7-18.5,9.2-20.2,8.6c-0.8-0.3-1.8,0-2.3,0.6c-3,3.6-10,12.2-9,13.7c0.9,1.4,3.5,5.4,3.5,5.4c5.4,0.5,3.7,5.8,3.7,5.7
		c0,0,2.9,4.5,4,6.2c0.5,0.8,0.2,1-0.3,1.3c-1.2,0.7-1.7,1.1-2.7,1.7c-0.5,0.3-1.2,0.7-1.7,0c-0.5-0.8-1.8-2.7-2.2-3.5
		c-0.2-0.3-0.6-0.1-1,0.1c-0.2,0.1-0.6,0.3-0.8,0.5c0,0,3.2,5,4,6.2c0.1,0.2,1.6,0.7,3.8,1.4c0.7,0.2,1.6,2,2.3,2.3
		c1.4,0.6,2.8,3.3,3.2,3.4c2.5,0.4,4.9,1,7.9,1.4c1,0.1,3,3.4,4,3.5c11.2,1.5,27.8,5.4,28.9,5.6c3.2,0.7,3.9-4.1,11-1.6
		c4.1,1.5,4,2.9,4.5,5.3c0.1,0.7,1.1,0.9,1.8,1c1,0.3,1.9,0.4,2.5,0.6c1.3,0.3-0.3,5.3-0.5,5.2c-5.3-1.5-22.8-5-35.8-7.5
		c-8.6-1.7-1.8,3.5-7.8,2.5c-0.9-0.1-9.3-3.1-10.1-1.7c-0.5,0.8-3.4,5.6-1.6,6.2c2.1,0.8,4.7,1.7,6.9,2.6c3.7,1.5,7.2,1.3,8.9,0
		c4.8-3.4,7.4-2.5,5.9-0.3c-3.9,5.8-7.5,7-13.6,6c-11.2-1.8-34.5-12.2-47.6-15.7c-3.8-1-0.7,3.2-7.5,1c-5.6-1.8-3-4.1-7.4-5.6
		c-8.3-2.8-7.9-4.7-14.9-0.3c-22.4,14.4-16.5,11.7-26.6,11.1c-15.1-0.8-28.4,0.8-41.6,8.2c-6.4,3.6-5,1.6-1.9,7.2
		c0.4,1.4-2,4.5-0.3,7.2C1133.8,661.1,1135,658.8,1143.4,664.3z"/>
	<path class="st3" d="M1643.2,390.9c-28.2-18.6,15.8-46.9,22.3-19.6c2.6,11.1,1.1,14.6,4.5,19.9c2.7,4.3,6.8,2.1,7.8,3.7
		c2.9,4.6,1.9,5,4.9,3.4c12.1-6.6,25.8-15.8,38.2-21c8.9-3.7,12.6,6.1,12.6,6.1l-360.2,226.4c0,0-8.1-8.4,6.3-17.5
		c13.9-8.8,96.2-64.8,96.2-64.8s-8.1-8.4-12.1-24.3c-3.5-13.8-3.3-19-0.2-38.9c0.7-4.8-4.4-15.3-16.3-12.1c-7.4,2-18.9,1.9-10.1-3.9
		c1.8-1.2,3.5-2.4,8.2-4.1c12.3-4.5,24.9-6.8,40.7-2.3c7.6,2.2,5.7-0.7,3.6,18.3c-1.3,11.7-0.1,44.5,15.9,34.4
		c13.6-8.6,18.5-9.1,20.3-8.5c0.8,0.3,1.8,0.1,2.3-0.6c3-3.6,10-12.2,9.1-13.7c-0.9-1.4-3.4-5.4-3.4-5.4c-5.4-0.6-3.7-5.8-3.7-5.8
		c0,0-2.9-4.6-3.9-6.2c-0.5-0.8-0.2-1,0.3-1.3c1.2-0.7,1.8-1.1,2.7-1.7c0.5-0.3,1.2-0.7,1.7,0c0.5,0.8,1.7,2.8,2.2,3.5
		c0.2,0.3,0.6,0.1,1-0.1c0.2-0.1,0.6-0.3,0.8-0.5c0,0-3.2-5-3.9-6.2c-0.1-0.2-1.6-0.7-3.8-1.4c-0.7-0.2-1.6-2-2.3-2.3
		c-1.4-0.6-2.7-3.3-3.2-3.4c-2.5-0.4-4.9-1-7.9-1.5c-1-0.1-3-3.4-4-3.5c-11.2-1.6-27.8-5.6-28.9-5.8c-3.2-0.7-3.9,4.1-11,1.5
		c-4.1-1.5-4-2.9-4.5-5.3c-0.1-0.7-1.1-0.9-1.8-1.1c-1-0.3-1.9-0.4-2.5-0.6c-1.3-0.3,0.3-5.3,0.5-5.2c5.3,1.5,22.8,5.1,35.8,7.7
		c8.6,1.7,1.8-3.5,7.9-2.5c0.9,0.2,9.3,3.2,10.1,1.7c0.5-0.8,3.4-5.5,1.6-6.2c-2.1-0.8-4.7-1.8-6.9-2.7c-3.7-1.5-7.2-1.3-8.9-0.1
		c-4.9,3.4-7.4,2.5-5.9,0.3c3.9-5.8,7.5-6.9,13.6-5.9c11.2,1.9,34.4,12.4,47.5,16c3.8,1,0.7-3.2,7.5-1c5.6,1.8,3,4.1,7.4,5.6
		c8.3,2.9,7.9,4.8,14.9,0.3c22.5-14.2,16.5-11.6,26.7-10.9c15.1,0.9,28.4-0.6,41.6-7.9c6.4-3.5,5-1.5,1.9-7.2
		c-0.3-1.4,2-4.5,0.3-7.2C1652.8,394.1,1651.5,396.4,1643.2,390.9z"/>
	<path class="st3" d="M1606,376.8c28.3,18.4-15.6,47-22.2,19.7c-2.7-11.1-1.2-14.6-4.6-19.9c-2.7-4.2-6.8-2.1-7.8-3.7
		c-3-4.6-2-5-4.9-3.4c-12.1,6.7-25.7,15.9-38.1,21.2c-8.9,3.8-12.6-6.1-12.6-6.1l358.9-228.5c0,0,8.1,8.4-6.2,17.6
		c-13.9,8.9-95.8,65.3-95.8,65.3s8.1,8.4,12.3,24.2c3.6,13.8,3.4,18.9,0.5,38.9c-0.7,4.8,4.5,15.3,16.4,12c7.4-2,18.9-2,10.1,3.9
		c-1.8,1.2-3.5,2.4-8.2,4.2c-12.3,4.6-24.9,7-40.7,2.5c-7.6-2.1-5.7,0.8-3.7-18.3c1.2-11.7-0.2-44.5-16.1-34.3
		c-13.6,8.7-18.5,9.2-20.2,8.6c-0.8-0.3-1.8,0-2.3,0.6c-3,3.6-10,12.2-9,13.7c0.9,1.4,3.5,5.4,3.5,5.4c5.4,0.5,3.7,5.8,3.7,5.7
		c0,0,2.9,4.5,4,6.2c0.5,0.8,0.2,1-0.3,1.3c-1.2,0.7-1.7,1.1-2.7,1.7c-0.5,0.3-1.2,0.7-1.7,0c-0.5-0.8-1.8-2.7-2.2-3.5
		c-0.2-0.3-0.6-0.1-1,0.1c-0.2,0.1-0.6,0.3-0.8,0.5c0,0,3.2,5,4,6.2c0.1,0.2,1.6,0.7,3.8,1.4c0.7,0.2,1.6,2,2.3,2.3
		c1.4,0.6,2.8,3.3,3.2,3.4c2.5,0.4,4.9,1,7.9,1.4c1,0.1,3,3.4,4,3.5c11.2,1.5,27.8,5.4,28.9,5.6c3.2,0.7,3.9-4.1,11-1.6
		c4.1,1.5,4,2.9,4.5,5.3c0.1,0.7,1.1,0.9,1.8,1c1,0.3,1.9,0.4,2.5,0.6c1.3,0.3-0.3,5.3-0.5,5.2c-5.3-1.5-22.8-5-35.8-7.5
		c-8.6-1.7-1.8,3.5-7.8,2.5c-0.9-0.1-9.3-3.1-10.1-1.7c-0.5,0.8-3.4,5.6-1.6,6.2c2.1,0.8,4.7,1.7,6.9,2.6c3.7,1.5,7.2,1.3,8.9,0
		c4.8-3.4,7.4-2.5,5.9-0.3c-3.9,5.8-7.5,7-13.6,6c-11.2-1.8-34.5-12.2-47.6-15.7c-3.8-1-0.7,3.2-7.5,1c-5.6-1.8-3-4.1-7.4-5.6
		c-8.3-2.8-7.9-4.7-14.9-0.3c-22.4,14.4-16.5,11.7-26.6,11.1c-15.1-0.8-28.4,0.8-41.6,8.2c-6.4,3.6-5,1.6-1.9,7.2
		c0.4,1.4-2,4.5-0.3,7.2C1596.4,373.7,1597.6,371.3,1606,376.8z"/>
</g>
<g class="st1">
	<path class="st3" d="M1522.5,650.3c-28.2-18.6,15.8-46.9,22.3-19.6c2.6,11.1,1.1,14.6,4.5,19.9c2.7,4.3,6.8,2.1,7.8,3.7
		c2.9,4.6,1.9,5,4.9,3.4c12.1-6.6,25.8-15.8,38.2-21c8.9-3.7,12.6,6.1,12.6,6.1l-360.2,226.4c0,0-8.1-8.4,6.3-17.5
		c13.9-8.8,96.2-64.8,96.2-64.8s-8.1-8.4-12.1-24.3c-3.5-13.8-3.3-19-0.2-38.9c0.7-4.8-4.4-15.3-16.3-12.1c-7.4,2-18.9,1.9-10.1-3.9
		c1.8-1.2,3.5-2.4,8.2-4.1c12.3-4.5,24.9-6.8,40.7-2.3c7.6,2.2,5.7-0.7,3.6,18.3c-1.3,11.7-0.1,44.5,15.9,34.4
		c13.6-8.6,18.5-9.1,20.3-8.5c0.8,0.3,1.8,0.1,2.3-0.6c3-3.6,10-12.2,9.1-13.7c-0.9-1.4-3.4-5.4-3.4-5.4c-5.4-0.6-3.7-5.8-3.7-5.8
		c0,0-2.9-4.6-3.9-6.2c-0.5-0.8-0.2-1,0.3-1.3c1.2-0.7,1.8-1.1,2.7-1.7c0.5-0.3,1.2-0.7,1.7,0c0.5,0.8,1.7,2.8,2.2,3.5
		c0.2,0.3,0.6,0.1,1-0.1c0.2-0.1,0.6-0.3,0.8-0.5c0,0-3.2-5-3.9-6.2c-0.1-0.2-1.6-0.7-3.8-1.4c-0.7-0.2-1.6-2-2.3-2.3
		c-1.4-0.6-2.7-3.3-3.2-3.4c-2.5-0.4-4.9-1-7.9-1.5c-1-0.1-3-3.4-4-3.5c-11.2-1.6-27.8-5.6-28.9-5.8c-3.2-0.7-3.9,4.1-11,1.5
		c-4.1-1.5-4-2.9-4.5-5.3c-0.1-0.7-1.1-0.9-1.8-1.1c-1-0.3-1.9-0.4-2.5-0.6c-1.3-0.3,0.3-5.3,0.5-5.2c5.3,1.5,22.8,5.1,35.8,7.7
		c8.6,1.7,1.8-3.5,7.9-2.5c0.9,0.2,9.3,3.2,10.1,1.7c0.5-0.8,3.4-5.5,1.6-6.2c-2.1-0.8-4.7-1.8-6.9-2.7c-3.7-1.5-7.2-1.3-8.9-0.1
		c-4.9,3.4-7.4,2.5-5.9,0.3c3.9-5.8,7.5-6.9,13.6-5.9c11.2,1.9,34.4,12.4,47.5,16c3.8,1,0.7-3.2,7.5-1c5.6,1.8,3,4.1,7.4,5.6
		c8.3,2.9,7.9,4.8,14.9,0.3c22.5-14.2,16.5-11.6,26.7-10.9c15.1,0.9,28.4-0.6,41.6-7.9c6.4-3.5,5-1.5,1.9-7.2
		c-0.3-1.4,2-4.5,0.3-7.2C1532.2,653.5,1530.9,655.9,1522.5,650.3z"/>
	<path class="st3" d="M1485.4,636.3c28.3,18.4-15.6,47-22.2,19.7c-2.7-11.1-1.2-14.6-4.6-19.9c-2.7-4.2-6.8-2.1-7.8-3.7
		c-3-4.6-2-5-4.9-3.4c-12.1,6.7-25.7,15.9-38.1,21.2c-8.9,3.8-12.6-6.1-12.6-6.1L1754,415.6c0,0,8.1,8.4-6.2,17.6
		c-13.9,8.9-95.8,65.3-95.8,65.3s8.1,8.4,12.3,24.2c3.6,13.8,3.4,18.9,0.5,38.9c-0.7,4.8,4.5,15.3,16.4,12c7.4-2,18.9-2,10.1,3.9
		c-1.8,1.2-3.5,2.4-8.2,4.2c-12.3,4.6-24.9,7-40.7,2.5c-7.6-2.1-5.7,0.8-3.7-18.3c1.2-11.7-0.2-44.5-16.1-34.3
		c-13.6,8.7-18.5,9.2-20.2,8.6c-0.8-0.3-1.8,0-2.3,0.6c-3,3.6-10,12.2-9,13.7c0.9,1.4,3.5,5.4,3.5,5.4c5.4,0.5,3.7,5.8,3.7,5.7
		c0,0,2.9,4.5,4,6.2c0.5,0.8,0.2,1-0.3,1.3c-1.2,0.7-1.7,1.1-2.7,1.7c-0.5,0.3-1.2,0.7-1.7,0c-0.5-0.8-1.8-2.7-2.2-3.5
		c-0.2-0.3-0.6-0.1-1,0.1c-0.2,0.1-0.6,0.3-0.8,0.5c0,0,3.2,5,4,6.2c0.1,0.2,1.6,0.7,3.8,1.4c0.7,0.2,1.6,2,2.3,2.3
		c1.4,0.6,2.8,3.3,3.2,3.4c2.5,0.4,4.9,1,7.9,1.4c1,0.1,3,3.4,4,3.5c11.2,1.5,27.8,5.4,28.9,5.6c3.2,0.7,3.9-4.1,11-1.6
		c4.1,1.5,4,2.9,4.5,5.3c0.1,0.7,1.1,0.9,1.8,1c1,0.3,1.9,0.4,2.5,0.6c1.3,0.3-0.3,5.3-0.5,5.2c-5.3-1.5-22.8-5-35.8-7.5
		c-8.6-1.7-1.8,3.5-7.8,2.5c-0.9-0.1-9.3-3.1-10.1-1.7c-0.5,0.8-3.4,5.6-1.6,6.2c2.1,0.8,4.7,1.7,6.9,2.6c3.7,1.5,7.2,1.3,8.9,0
		c4.8-3.4,7.4-2.5,5.9-0.3c-3.9,5.8-7.5,7-13.6,6c-11.2-1.8-34.5-12.2-47.6-15.7c-3.8-1-0.7,3.2-7.5,1c-5.6-1.8-3-4.1-7.4-5.6
		c-8.3-2.8-7.9-4.7-14.9-0.3c-22.4,14.4-16.5,11.7-26.6,11.1c-15.1-0.8-28.4,0.8-41.6,8.2c-6.4,3.6-5,1.6-1.9,7.2
		c0.4,1.4-2,4.5-0.3,7.2C1475.8,633.1,1477,630.8,1485.4,636.3z"/>
	<path class="st3" d="M1985.2,362.9c-28.2-18.6,15.8-46.9,22.3-19.6c2.6,11.1,1.1,14.6,4.5,19.9c2.7,4.3,6.8,2.1,7.8,3.7
		c2.9,4.6,1.9,5,4.9,3.4c12.1-6.6,25.8-15.8,38.2-21c8.9-3.7,12.6,6.1,12.6,6.1l-360.2,226.4c0,0-8.1-8.4,6.3-17.5
		c13.9-8.8,96.2-64.8,96.2-64.8s-8.1-8.4-12.1-24.3c-3.5-13.8-3.3-19-0.2-38.9c0.7-4.8-4.4-15.3-16.3-12.1c-7.4,2-18.9,1.9-10.1-3.9
		c1.8-1.2,3.5-2.4,8.2-4.1c12.3-4.5,24.9-6.8,40.7-2.3c7.6,2.2,5.7-0.7,3.6,18.3c-1.3,11.7-0.1,44.5,15.9,34.4
		c13.6-8.6,18.5-9.1,20.3-8.5c0.8,0.3,1.8,0.1,2.3-0.6c3-3.6,10-12.2,9.1-13.7c-0.9-1.4-3.4-5.4-3.4-5.4c-5.4-0.6-3.7-5.8-3.7-5.8
		c0,0-2.9-4.6-3.9-6.2c-0.5-0.8-0.2-1,0.3-1.3c1.2-0.7,1.8-1.1,2.7-1.7c0.5-0.3,1.2-0.7,1.7,0c0.5,0.8,1.7,2.8,2.2,3.5
		c0.2,0.3,0.6,0.1,1-0.1c0.2-0.1,0.6-0.3,0.8-0.5c0,0-3.2-5-3.9-6.2c-0.1-0.2-1.6-0.7-3.8-1.4c-0.7-0.2-1.6-2-2.3-2.3
		c-1.4-0.6-2.7-3.3-3.2-3.4c-2.5-0.4-4.9-1-7.9-1.5c-1-0.1-3-3.4-4-3.5c-11.2-1.6-27.8-5.6-28.9-5.8c-3.2-0.7-3.9,4.1-11,1.5
		c-4.1-1.5-4-2.9-4.5-5.3c-0.1-0.7-1.1-0.9-1.8-1.1c-1-0.3-1.9-0.4-2.5-0.6c-1.3-0.3,0.3-5.3,0.5-5.2c5.3,1.5,22.8,5.1,35.8,7.7
		c8.6,1.7,1.8-3.5,7.9-2.5c0.9,0.2,9.3,3.2,10.1,1.7c0.5-0.8,3.4-5.5,1.6-6.2c-2.1-0.8-4.7-1.8-6.9-2.7c-3.7-1.5-7.2-1.3-8.9-0.1
		c-4.9,3.4-7.4,2.5-5.9,0.3c3.9-5.8,7.5-6.9,13.6-5.9c11.2,1.9,34.4,12.4,47.5,16c3.8,1,0.7-3.2,7.5-1c5.6,1.8,3,4.1,7.4,5.6
		c8.3,2.9,7.9,4.8,14.9,0.3c22.5-14.2,16.5-11.6,26.7-10.9c15.1,0.9,28.4-0.6,41.6-7.9c6.4-3.5,5-1.5,1.9-7.2
		c-0.3-1.4,2-4.5,0.3-7.2C1994.8,366.1,1993.5,368.4,1985.2,362.9z"/>
</g>
<g class="st1">
	<path class="st3" d="M401.5,282.3c-28.2-18.6,15.8-46.9,22.3-19.6c2.6,11.1,1.1,14.6,4.5,19.9c2.7,4.3,6.8,2.1,7.8,3.7
		c2.9,4.6,1.9,5,4.9,3.4c12.1-6.6,25.8-15.8,38.2-21c8.9-3.7,12.6,6.1,12.6,6.1L131.6,501.4c0,0-8.1-8.4,6.3-17.5
		c13.9-8.8,96.2-64.8,96.2-64.8s-8.1-8.4-12.1-24.3c-3.5-13.8-3.3-19-0.2-38.9c0.7-4.8-4.4-15.3-16.3-12.1c-7.4,2-18.9,1.9-10.1-3.9
		c1.8-1.2,3.5-2.4,8.2-4.1c12.3-4.5,24.9-6.8,40.7-2.3c7.6,2.2,5.7-0.7,3.6,18.3c-1.3,11.7-0.1,44.5,15.9,34.4
		c13.6-8.6,18.5-9.1,20.3-8.5c0.8,0.3,1.8,0.1,2.3-0.6c3-3.6,10-12.2,9.1-13.7c-0.9-1.4-3.4-5.4-3.4-5.4c-5.4-0.6-3.7-5.8-3.7-5.8
		c0,0-2.9-4.6-3.9-6.2c-0.5-0.8-0.2-1,0.3-1.3c1.2-0.7,1.8-1.1,2.7-1.7c0.5-0.3,1.2-0.7,1.7,0c0.5,0.8,1.7,2.8,2.2,3.5
		c0.2,0.3,0.6,0.1,1-0.1c0.2-0.1,0.6-0.3,0.8-0.5c0,0-3.2-5-3.9-6.2c-0.1-0.2-1.6-0.7-3.8-1.4c-0.7-0.2-1.6-2-2.3-2.3
		c-1.4-0.6-2.7-3.3-3.2-3.4c-2.5-0.4-4.9-1-7.9-1.5c-1-0.1-3-3.4-4-3.5c-11.2-1.6-27.8-5.6-28.9-5.8c-3.2-0.7-3.9,4.1-11,1.5
		c-4.1-1.5-4-2.9-4.5-5.3c-0.1-0.7-1.1-0.9-1.8-1.1c-1-0.3-1.9-0.4-2.5-0.6c-1.3-0.3,0.3-5.3,0.5-5.2c5.3,1.5,22.8,5.1,35.8,7.7
		c8.6,1.7,1.8-3.5,7.9-2.5c0.9,0.2,9.3,3.2,10.1,1.7c0.5-0.8,3.4-5.5,1.6-6.2c-2.1-0.8-4.7-1.8-6.9-2.7c-3.7-1.5-7.2-1.3-8.9-0.1
		c-4.9,3.4-7.4,2.5-5.9,0.3c3.9-5.8,7.5-6.9,13.6-5.9c11.2,1.9,34.4,12.4,47.5,16c3.8,1,0.7-3.2,7.5-1c5.6,1.8,3,4.1,7.4,5.6
		c8.3,2.9,7.9,4.8,14.9,0.3c22.5-14.2,16.5-11.6,26.7-10.9c15.1,0.9,28.4-0.6,41.6-7.9c6.4-3.5,5-1.5,1.9-7.2
		c-0.3-1.4,2-4.5,0.3-7.2C411.2,285.5,409.9,287.9,401.5,282.3z"/>
	<path class="st3" d="M364.4,268.3c28.3,18.4-15.6,47-22.2,19.7c-2.7-11.1-1.2-14.6-4.6-19.9c-2.7-4.2-6.8-2.1-7.8-3.7
		c-3-4.6-2-5-4.9-3.4c-12.1,6.7-25.7,15.9-38.1,21.2c-8.9,3.8-12.6-6.1-12.6-6.1L633,47.6c0,0,8.1,8.4-6.2,17.6
		c-13.9,8.9-95.8,65.3-95.8,65.3s8.1,8.4,12.3,24.2c3.6,13.8,3.4,18.9,0.5,38.9c-0.7,4.8,4.5,15.3,16.4,12c7.4-2,18.9-2,10.1,3.9
		c-1.8,1.2-3.5,2.4-8.2,4.2c-12.3,4.6-24.9,7-40.7,2.5c-7.6-2.1-5.7,0.8-3.7-18.3c1.2-11.7-0.2-44.5-16.1-34.3
		c-13.6,8.7-18.5,9.2-20.2,8.6c-0.8-0.3-1.8,0-2.3,0.6c-3,3.6-10,12.2-9,13.7c0.9,1.4,3.5,5.4,3.5,5.4c5.4,0.5,3.7,5.8,3.7,5.7
		c0,0,2.9,4.5,4,6.2c0.5,0.8,0.2,1-0.3,1.3c-1.2,0.7-1.7,1.1-2.7,1.7c-0.5,0.3-1.2,0.7-1.7,0c-0.5-0.8-1.8-2.7-2.2-3.5
		c-0.2-0.3-0.6-0.1-1,0.1c-0.2,0.1-0.6,0.3-0.8,0.5c0,0,3.2,5,4,6.2c0.1,0.2,1.6,0.7,3.8,1.4c0.7,0.2,1.6,2,2.3,2.3
		c1.4,0.6,2.8,3.3,3.2,3.4c2.5,0.4,4.9,1,7.9,1.4c1,0.1,3,3.4,4,3.5c11.2,1.5,27.8,5.4,28.9,5.6c3.2,0.7,3.9-4.1,11-1.6
		c4.1,1.5,4,2.9,4.5,5.3c0.1,0.7,1.1,0.9,1.8,1c1,0.3,1.9,0.4,2.5,0.6c1.3,0.3-0.3,5.3-0.5,5.2c-5.3-1.5-22.8-5-35.8-7.5
		c-8.6-1.7-1.8,3.5-7.8,2.5c-0.9-0.1-9.3-3.1-10.1-1.7c-0.5,0.8-3.4,5.6-1.6,6.2c2.1,0.8,4.7,1.7,6.9,2.6c3.7,1.5,7.2,1.3,8.9,0
		c4.8-3.4,7.4-2.5,5.9-0.3c-3.9,5.8-7.5,7-13.6,6c-11.2-1.8-34.5-12.2-47.6-15.7c-3.8-1-0.7,3.2-7.5,1c-5.6-1.8-3-4.1-7.4-5.6
		c-8.3-2.8-7.9-4.7-14.9-0.3c-22.4,14.4-16.5,11.7-26.6,11.1c-15.1-0.8-28.4,0.8-41.6,8.2c-6.4,3.6-5,1.6-1.9,7.2
		c0.4,1.4-2,4.5-0.3,7.2C354.8,265.1,356,262.8,364.4,268.3z"/>
	<path class="st3" d="M864.2-5.1C835.9-23.7,880-52,886.5-24.7c2.6,11.1,1.1,14.6,4.5,19.9c2.7,4.3,6.8,2.1,7.8,3.7
		c2.9,4.6,1.9,5,4.9,3.4c12.1-6.6,25.8-15.8,38.2-21c8.9-3.7,12.6,6.1,12.6,6.1L594.3,213.9c0,0-8.1-8.4,6.3-17.5
		c13.9-8.8,96.2-64.8,96.2-64.8s-8.1-8.4-12.1-24.3c-3.5-13.8-3.3-19-0.2-38.9c0.7-4.8-4.4-15.3-16.3-12.1c-7.4,2-18.9,1.9-10.1-3.9
		c1.8-1.2,3.5-2.4,8.2-4.1c12.3-4.5,24.9-6.8,40.7-2.3c7.6,2.2,5.7-0.7,3.6,18.3c-1.3,11.7-0.1,44.5,15.9,34.4
		c13.6-8.6,18.5-9.1,20.3-8.5c0.8,0.3,1.8,0.1,2.3-0.6c3-3.6,10-12.2,9.1-13.7c-0.9-1.4-3.4-5.4-3.4-5.4c-5.4-0.6-3.7-5.8-3.7-5.8
		c0,0-2.9-4.6-3.9-6.2c-0.5-0.8-0.2-1,0.3-1.3c1.2-0.7,1.8-1.1,2.7-1.7c0.5-0.3,1.2-0.7,1.7,0c0.5,0.8,1.7,2.8,2.2,3.5
		c0.2,0.3,0.6,0.1,1-0.1c0.2-0.1,0.6-0.3,0.8-0.5c0,0-3.2-5-3.9-6.2c-0.1-0.2-1.6-0.7-3.8-1.4c-0.7-0.2-1.6-2-2.3-2.3
		c-1.4-0.6-2.7-3.3-3.2-3.4c-2.5-0.4-4.9-1-7.9-1.5c-1-0.1-3-3.4-4-3.5c-11.2-1.6-27.8-5.6-28.9-5.8c-3.2-0.7-3.9,4.1-11,1.5
		c-4.1-1.5-4-2.9-4.5-5.3c-0.1-0.7-1.1-0.9-1.8-1.1c-1-0.3-1.9-0.4-2.5-0.6c-1.3-0.3,0.3-5.3,0.5-5.2c5.3,1.5,22.8,5.1,35.8,7.7
		c8.6,1.7,1.8-3.5,7.9-2.5c0.9,0.2,9.3,3.2,10.1,1.7c0.5-0.8,3.4-5.5,1.6-6.2c-2.1-0.8-4.7-1.8-6.9-2.7c-3.7-1.5-7.2-1.3-8.9-0.1
		c-4.9,3.4-7.4,2.5-5.9,0.3c3.9-5.8,7.5-6.9,13.6-5.9c11.2,1.9,34.4,12.4,47.5,16c3.8,1,0.7-3.2,7.5-1c5.6,1.8,3,4.1,7.4,5.6
		c8.3,2.9,7.9,4.8,14.9,0.3c22.5-14.2,16.5-11.6,26.7-10.9c15.1,0.9,28.4-0.6,41.6-7.9c6.4-3.5,5-1.5,1.9-7.2
		c-0.3-1.4,2-4.5,0.3-7.2C873.8-1.9,872.5,0.4,864.2-5.1z"/>
	<path class="st3" d="M827-19.2c28.3,18.4-15.6,47-22.2,19.7c-2.7-11.1-1.2-14.6-4.6-19.9c-2.7-4.2-6.8-2.1-7.8-3.7
		c-3-4.6-2-5-4.9-3.4c-12.1,6.7-25.7,15.9-38.1,21.2c-8.9,3.8-12.6-6.1-12.6-6.1l358.9-228.5c0,0,8.1,8.4-6.2,17.6
		c-13.9,8.9-95.8,65.3-95.8,65.3s8.1,8.4,12.3,24.2c3.6,13.8,3.4,18.9,0.5,38.9c-0.7,4.8,4.5,15.3,16.4,12c7.4-2,18.9-2,10.1,3.9
		c-1.8,1.2-3.5,2.4-8.2,4.2c-12.3,4.6-24.9,7-40.7,2.5c-7.6-2.1-5.7,0.8-3.7-18.3c1.2-11.7-0.2-44.5-16.1-34.3
		c-13.6,8.7-18.5,9.2-20.2,8.6c-0.8-0.3-1.8,0-2.3,0.6c-3,3.6-10,12.2-9,13.7c0.9,1.4,3.5,5.4,3.5,5.4c5.4,0.5,3.7,5.8,3.7,5.7
		c0,0,2.9,4.5,4,6.2c0.5,0.8,0.2,1-0.3,1.3c-1.2,0.7-1.7,1.1-2.7,1.7c-0.5,0.3-1.2,0.7-1.7,0c-0.5-0.8-1.8-2.7-2.2-3.5
		c-0.2-0.3-0.6-0.1-1,0.1c-0.2,0.1-0.6,0.3-0.8,0.5c0,0,3.2,5,4,6.2c0.1,0.2,1.6,0.7,3.8,1.4c0.7,0.2,1.6,2,2.3,2.3
		c1.4,0.6,2.8,3.3,3.2,3.4c2.5,0.4,4.9,1,7.9,1.4c1,0.1,3,3.4,4,3.5c11.2,1.5,27.8,5.4,28.9,5.6c3.2,0.7,3.9-4.1,11-1.6
		c4.1,1.5,4,2.9,4.5,5.3c0.1,0.7,1.1,0.9,1.8,1c1,0.3,1.9,0.4,2.5,0.6c1.3,0.3-0.3,5.3-0.5,5.2c-5.3-1.5-22.8-5-35.8-7.5
		c-8.6-1.7-1.8,3.5-7.8,2.5c-0.9-0.1-9.3-3.1-10.1-1.7c-0.5,0.8-3.4,5.6-1.6,6.2c2.1,0.8,4.7,1.7,6.9,2.6c3.7,1.5,7.2,1.3,8.9,0
		c4.8-3.4,7.4-2.5,5.9-0.3c-3.9,5.8-7.5,7-13.6,6C950.3-43.1,927-53.4,913.8-57c-3.8-1-0.7,3.2-7.5,1c-5.6-1.8-3-4.1-7.4-5.6
		c-8.3-2.8-7.9-4.7-14.9-0.3c-22.4,14.4-16.5,11.7-26.6,11.1c-15.1-0.8-28.4,0.8-41.6,8.2c-6.4,3.6-5,1.6-1.9,7.2
		c0.4,1.4-2,4.5-0.3,7.2C817.4-22.3,818.6-24.7,827-19.2z"/>
</g>
<g class="st1">
	<path class="st3" d="M62.5,308.3c-28.2-18.6,15.8-46.9,22.3-19.6c2.6,11.1,1.1,14.6,4.5,19.9c2.7,4.3,6.8,2.1,7.8,3.7
		c2.9,4.6,1.9,5,4.9,3.4c12.1-6.6,25.8-15.8,38.2-21c8.9-3.7,12.6,6.1,12.6,6.1l-360.2,226.4c0,0-8.1-8.4,6.3-17.5
		c13.9-8.8,96.2-64.8,96.2-64.8s-8.1-8.4-12.1-24.3c-3.5-13.8-3.3-19-0.2-38.9c0.7-4.8-4.4-15.3-16.3-12.1c-7.4,2-18.9,1.9-10.1-3.9
		c1.8-1.2,3.5-2.4,8.2-4.1c12.3-4.5,24.9-6.8,40.7-2.3c7.6,2.2,5.7-0.7,3.6,18.3c-1.3,11.7-0.1,44.5,15.9,34.4
		c13.6-8.6,18.5-9.1,20.3-8.5c0.8,0.3,1.8,0.1,2.3-0.6c3-3.6,10-12.2,9.1-13.7c-0.9-1.4-3.4-5.4-3.4-5.4c-5.4-0.6-3.7-5.8-3.7-5.8
		c0,0-2.9-4.6-3.9-6.2c-0.5-0.8-0.2-1,0.3-1.3c1.2-0.7,1.8-1.1,2.7-1.7c0.5-0.3,1.2-0.7,1.7,0c0.5,0.8,1.7,2.8,2.2,3.5
		c0.2,0.3,0.6,0.1,1-0.1c0.2-0.1,0.6-0.3,0.8-0.5c0,0-3.2-5-3.9-6.2c-0.1-0.2-1.6-0.7-3.8-1.4c-0.7-0.2-1.6-2-2.3-2.3
		c-1.4-0.6-2.7-3.3-3.2-3.4c-2.5-0.4-4.9-1-7.9-1.5c-1-0.1-3-3.4-4-3.5c-11.2-1.6-27.8-5.6-28.9-5.8c-3.2-0.7-3.9,4.1-11,1.5
		c-4.1-1.5-4-2.9-4.5-5.3c-0.1-0.7-1.1-0.9-1.8-1.1c-1-0.3-1.9-0.4-2.5-0.6c-1.3-0.3,0.3-5.3,0.5-5.2c5.3,1.5,22.8,5.1,35.8,7.7
		c8.6,1.7,1.8-3.5,7.9-2.5c0.9,0.2,9.3,3.2,10.1,1.7c0.5-0.8,3.4-5.5,1.6-6.2c-2.1-0.8-4.7-1.8-6.9-2.7c-3.7-1.5-7.2-1.3-8.9-0.1
		c-4.9,3.4-7.4,2.5-5.9,0.3c3.9-5.8,7.5-6.9,13.6-5.9c11.2,1.9,34.4,12.4,47.5,16c3.8,1,0.7-3.2,7.5-1c5.6,1.8,3,4.1,7.4,5.6
		c8.3,2.9,7.9,4.8,14.9,0.3c22.5-14.2,16.5-11.6,26.7-10.9c15.1,0.9,28.4-0.6,41.6-7.9c6.4-3.5,5-1.5,1.9-7.2
		c-0.3-1.4,2-4.5,0.3-7.2C72.2,311.5,70.9,313.9,62.5,308.3z"/>
	<path class="st3" d="M25.4,294.3c28.3,18.4-15.6,47-22.2,19.7c-2.7-11.1-1.2-14.6-4.6-19.9c-2.7-4.2-6.8-2.1-7.8-3.7
		c-3-4.6-2-5-4.9-3.4c-12.1,6.7-25.7,15.9-38.1,21.2c-8.9,3.8-12.6-6.1-12.6-6.1L294,73.6c0,0,8.1,8.4-6.2,17.6
		c-13.9,8.9-95.8,65.3-95.8,65.3s8.1,8.4,12.3,24.2c3.6,13.8,3.4,18.9,0.5,38.9c-0.7,4.8,4.5,15.3,16.4,12c7.4-2,18.9-2,10.1,3.9
		c-1.8,1.2-3.5,2.4-8.2,4.2c-12.3,4.6-24.9,7-40.7,2.5c-7.6-2.1-5.7,0.8-3.7-18.3c1.2-11.7-0.2-44.5-16.1-34.3
		c-13.6,8.7-18.5,9.2-20.2,8.6c-0.8-0.3-1.8,0-2.3,0.6c-3,3.6-10,12.2-9,13.7c0.9,1.4,3.5,5.4,3.5,5.4c5.4,0.5,3.7,5.8,3.7,5.7
		c0,0,2.9,4.5,4,6.2c0.5,0.8,0.2,1-0.3,1.3c-1.2,0.7-1.7,1.1-2.7,1.7c-0.5,0.3-1.2,0.7-1.7,0c-0.5-0.8-1.8-2.7-2.2-3.5
		c-0.2-0.3-0.6-0.1-1,0.1c-0.2,0.1-0.6,0.3-0.8,0.5c0,0,3.2,5,4,6.2c0.1,0.2,1.6,0.7,3.8,1.4c0.7,0.2,1.6,2,2.3,2.3
		c1.4,0.6,2.8,3.3,3.2,3.4c2.5,0.4,4.9,1,7.9,1.4c1,0.1,3,3.4,4,3.5c11.2,1.5,27.8,5.4,28.9,5.6c3.2,0.7,3.9-4.1,11-1.6
		c4.1,1.5,4,2.9,4.5,5.3c0.1,0.7,1.1,0.9,1.8,1c1,0.3,1.9,0.4,2.5,0.6c1.3,0.3-0.3,5.3-0.5,5.2c-5.3-1.5-22.8-5-35.8-7.5
		c-8.6-1.7-1.8,3.5-7.8,2.5c-0.9-0.1-9.3-3.1-10.1-1.7c-0.5,0.8-3.4,5.6-1.6,6.2c2.1,0.8,4.7,1.7,6.9,2.6c3.7,1.5,7.2,1.3,8.9,0
		c4.8-3.4,7.4-2.5,5.9-0.3c-3.9,5.8-7.5,7-13.6,6c-11.2-1.8-34.5-12.2-47.6-15.7c-3.8-1-0.7,3.2-7.5,1c-5.6-1.8-3-4.1-7.4-5.6
		c-8.3-2.8-7.9-4.7-14.9-0.3C60.1,266,66,263.3,55.8,262.8c-15.1-0.8-28.4,0.8-41.6,8.2c-6.4,3.6-5,1.6-1.9,7.2
		c0.4,1.4-2,4.5-0.3,7.2C15.8,291.1,17,288.8,25.4,294.3z"/>
	<path class="st3" d="M525.2,20.9C496.9,2.3,541-26,547.5,1.3c2.6,11.1,1.1,14.6,4.5,19.9c2.7,4.3,6.8,2.1,7.8,3.7
		c2.9,4.6,1.9,5,4.9,3.4c12.1-6.6,25.8-15.8,38.2-21c8.9-3.7,12.6,6.1,12.6,6.1L255.3,239.9c0,0-8.1-8.4,6.3-17.5
		c13.9-8.8,96.2-64.8,96.2-64.8s-8.1-8.4-12.1-24.3c-3.5-13.8-3.3-19-0.2-38.9c0.7-4.8-4.4-15.3-16.3-12.1c-7.4,2-18.9,1.9-10.1-3.9
		c1.8-1.2,3.5-2.4,8.2-4.1c12.3-4.5,24.9-6.8,40.7-2.3c7.6,2.2,5.7-0.7,3.6,18.3c-1.3,11.7-0.1,44.5,15.9,34.4
		c13.6-8.6,18.5-9.1,20.3-8.5c0.8,0.3,1.8,0.1,2.3-0.6c3-3.6,10-12.2,9.1-13.7c-0.9-1.4-3.4-5.4-3.4-5.4c-5.4-0.6-3.7-5.8-3.7-5.8
		s-2.9-4.6-3.9-6.2c-0.5-0.8-0.2-1,0.3-1.3c1.2-0.7,1.8-1.1,2.7-1.7c0.5-0.3,1.2-0.7,1.7,0c0.5,0.8,1.7,2.8,2.2,3.5
		c0.2,0.3,0.6,0.1,1-0.1c0.2-0.1,0.6-0.3,0.8-0.5c0,0-3.2-5-3.9-6.2c-0.1-0.2-1.6-0.7-3.8-1.4c-0.7-0.2-1.6-2-2.3-2.3
		c-1.4-0.6-2.7-3.3-3.2-3.4c-2.5-0.4-4.9-1-7.9-1.5c-1-0.1-3-3.4-4-3.5c-11.2-1.6-27.8-5.6-28.9-5.8c-3.2-0.7-3.9,4.1-11,1.5
		c-4.1-1.5-4-2.9-4.5-5.3c-0.1-0.7-1.1-0.9-1.8-1.1c-1-0.3-1.9-0.4-2.5-0.6c-1.3-0.3,0.3-5.3,0.5-5.2c5.3,1.5,22.8,5.1,35.8,7.7
		c8.6,1.7,1.8-3.5,7.9-2.5c0.9,0.2,9.3,3.2,10.1,1.7c0.5-0.8,3.4-5.5,1.6-6.2c-2.1-0.8-4.7-1.8-6.9-2.7c-3.7-1.5-7.2-1.3-8.9-0.1
		c-4.9,3.4-7.4,2.5-5.9,0.3c3.9-5.8,7.5-6.9,13.6-5.9c11.2,1.9,34.4,12.4,47.5,16c3.8,1,0.7-3.2,7.5-1c5.6,1.8,3,4.1,7.4,5.6
		c8.3,2.9,7.9,4.8,14.9,0.3c22.5-14.2,16.5-11.6,26.7-10.9c15.1,0.9,28.4-0.6,41.6-7.9c6.4-3.5,5-1.5,1.9-7.2
		c-0.3-1.4,2-4.5,0.3-7.2C534.8,24.1,533.5,26.4,525.2,20.9z"/>
	<path class="st3" d="M488,6.8c28.3,18.4-15.6,47-22.2,19.7c-2.7-11.1-1.2-14.6-4.6-19.9c-2.7-4.2-6.8-2.1-7.8-3.7
		c-3-4.6-2-5-4.9-3.4c-12.1,6.7-25.7,15.9-38.1,21.2c-8.9,3.8-12.6-6.1-12.6-6.1l358.9-228.5c0,0,8.1,8.4-6.2,17.6
		c-13.9,8.9-95.8,65.3-95.8,65.3s8.1,8.4,12.3,24.2c3.6,13.8,3.4,18.9,0.5,38.9c-0.7,4.8,4.5,15.3,16.4,12c7.4-2,18.9-2,10.1,3.9
		c-1.8,1.2-3.5,2.4-8.2,4.2c-12.3,4.6-24.9,7-40.7,2.5c-7.6-2.1-5.7,0.8-3.7-18.3c1.2-11.7-0.2-44.5-16.1-34.3
		c-13.6,8.7-18.5,9.2-20.2,8.6c-0.8-0.3-1.8,0-2.3,0.6c-3,3.6-10,12.2-9,13.7c0.9,1.4,3.5,5.4,3.5,5.4c5.4,0.5,3.7,5.8,3.7,5.7
		s2.9,4.5,4,6.2c0.5,0.8,0.2,1-0.3,1.3c-1.2,0.7-1.7,1.1-2.7,1.7c-0.5,0.3-1.2,0.7-1.7,0c-0.5-0.8-1.8-2.7-2.2-3.5
		c-0.2-0.3-0.6-0.1-1,0.1c-0.2,0.1-0.6,0.3-0.8,0.5c0,0,3.2,5,4,6.2c0.1,0.2,1.6,0.7,3.8,1.4c0.7,0.2,1.6,2,2.3,2.3
		c1.4,0.6,2.8,3.3,3.2,3.4c2.5,0.4,4.9,1,7.9,1.4c1,0.1,3,3.4,4,3.5c11.2,1.5,27.8,5.4,28.9,5.6c3.2,0.7,3.9-4.1,11-1.6
		c4.1,1.5,4,2.9,4.5,5.3c0.1,0.7,1.1,0.9,1.8,1c1,0.3,1.9,0.4,2.5,0.6c1.3,0.3-0.3,5.3-0.5,5.2c-5.3-1.5-22.8-5-35.8-7.5
		c-8.6-1.7-1.8,3.5-7.8,2.5c-0.9-0.1-9.3-3.1-10.1-1.7c-0.5,0.8-3.4,5.6-1.6,6.2c2.1,0.8,4.7,1.7,6.9,2.6c3.7,1.5,7.2,1.3,8.9,0
		c4.8-3.4,7.4-2.5,5.9-0.3c-3.9,5.8-7.5,7-13.6,6C611.3-17.1,588-27.4,574.8-31c-3.8-1-0.7,3.2-7.5,1c-5.6-1.8-3-4.1-7.4-5.6
		c-8.3-2.8-7.9-4.7-14.9-0.3c-22.4,14.4-16.5,11.7-26.6,11.1c-15.1-0.8-28.4,0.8-41.6,8.2c-6.4,3.6-5,1.6-1.9,7.2
		c0.4,1.4-2,4.5-0.3,7.2C478.4,3.7,479.6,1.3,488,6.8z"/>
</g>
<g class="st1">
	<path class="st3" d="M842.2,719.9c-28.2-18.6,15.8-46.9,22.3-19.6c2.6,11.1,1.1,14.6,4.5,19.9c2.7,4.3,6.8,2.1,7.8,3.7
		c2.9,4.6,1.9,5,4.9,3.4c12.1-6.6,25.8-15.8,38.2-21c8.9-3.7,12.6,6.1,12.6,6.1L572.3,938.9c0,0-8.1-8.4,6.3-17.5
		c13.9-8.8,96.2-64.8,96.2-64.8s-8.1-8.4-12.1-24.3c-3.5-13.8-3.3-19-0.2-38.9c0.7-4.8-4.4-15.3-16.3-12.1c-7.4,2-18.9,1.9-10.1-3.9
		c1.8-1.2,3.5-2.4,8.2-4.1c12.3-4.5,24.9-6.8,40.7-2.3c7.6,2.2,5.7-0.7,3.6,18.3c-1.3,11.7-0.1,44.5,15.9,34.4
		c13.6-8.6,18.5-9.1,20.3-8.5c0.8,0.3,1.8,0.1,2.3-0.6c3-3.6,10-12.2,9.1-13.7c-0.9-1.4-3.4-5.4-3.4-5.4c-5.4-0.6-3.7-5.8-3.7-5.8
		c0,0-2.9-4.6-3.9-6.2c-0.5-0.8-0.2-1,0.3-1.3c1.2-0.7,1.8-1.1,2.7-1.7c0.5-0.3,1.2-0.7,1.7,0c0.5,0.8,1.7,2.8,2.2,3.5
		c0.2,0.3,0.6,0.1,1-0.1c0.2-0.1,0.6-0.3,0.8-0.5c0,0-3.2-5-3.9-6.2c-0.1-0.2-1.6-0.7-3.8-1.4c-0.7-0.2-1.6-2-2.3-2.3
		c-1.4-0.6-2.7-3.3-3.2-3.4c-2.5-0.4-4.9-1-7.9-1.5c-1-0.1-3-3.4-4-3.5c-11.2-1.6-27.8-5.6-28.9-5.8c-3.2-0.7-3.9,4.1-11,1.5
		c-4.1-1.5-4-2.9-4.5-5.3c-0.1-0.7-1.1-0.9-1.8-1.1c-1-0.3-1.9-0.4-2.5-0.6c-1.3-0.3,0.3-5.3,0.5-5.2c5.3,1.5,22.8,5.1,35.8,7.7
		c8.6,1.7,1.8-3.5,7.9-2.5c0.9,0.2,9.3,3.2,10.1,1.7c0.5-0.8,3.4-5.5,1.6-6.2c-2.1-0.8-4.7-1.8-6.9-2.7c-3.7-1.5-7.2-1.3-8.9-0.1
		c-4.9,3.4-7.4,2.5-5.9,0.3c3.9-5.8,7.5-6.9,13.6-5.9c11.2,1.9,34.4,12.4,47.5,16c3.8,1,0.7-3.2,7.5-1c5.6,1.8,3,4.1,7.4,5.6
		c8.3,2.9,7.9,4.8,14.9,0.3c22.5-14.2,16.5-11.6,26.7-10.9c15.1,0.9,28.4-0.6,41.6-7.9c6.4-3.5,5-1.5,1.9-7.2
		c-0.3-1.4,2-4.5,0.3-7.2C851.8,723.1,850.5,725.4,842.2,719.9z"/>
	<path class="st3" d="M805,705.8c28.3,18.4-15.6,47-22.2,19.7c-2.7-11.1-1.2-14.6-4.6-19.9c-2.7-4.2-6.8-2.1-7.8-3.7
		c-3-4.6-2-5-4.9-3.4c-12.1,6.7-25.7,15.9-38.1,21.2c-8.9,3.8-12.6-6.1-12.6-6.1l358.9-228.5c0,0,8.1,8.4-6.2,17.6
		c-13.9,8.9-95.8,65.3-95.8,65.3s8.1,8.4,12.3,24.2c3.6,13.8,3.4,18.9,0.5,38.9c-0.7,4.8,4.5,15.3,16.4,12c7.4-2,18.9-2,10.1,3.9
		c-1.8,1.2-3.5,2.4-8.2,4.2c-12.3,4.6-24.9,7-40.7,2.5c-7.6-2.1-5.7,0.8-3.7-18.3c1.2-11.7-0.2-44.5-16.1-34.3
		c-13.6,8.7-18.5,9.2-20.2,8.6c-0.8-0.3-1.8,0-2.3,0.6c-3,3.6-10,12.2-9,13.7c0.9,1.4,3.5,5.4,3.5,5.4c5.4,0.5,3.7,5.8,3.7,5.7
		c0,0,2.9,4.5,4,6.2c0.5,0.8,0.2,1-0.3,1.3c-1.2,0.7-1.7,1.1-2.7,1.7c-0.5,0.3-1.2,0.7-1.7,0c-0.5-0.8-1.8-2.7-2.2-3.5
		c-0.2-0.3-0.6-0.1-1,0.1c-0.2,0.1-0.6,0.3-0.8,0.5c0,0,3.2,5,4,6.2c0.1,0.2,1.6,0.7,3.8,1.4c0.7,0.2,1.6,2,2.3,2.3
		c1.4,0.6,2.8,3.3,3.2,3.4c2.5,0.4,4.9,1,7.9,1.4c1,0.1,3,3.4,4,3.5c11.2,1.5,27.8,5.4,28.9,5.6c3.2,0.7,3.9-4.1,11-1.6
		c4.1,1.5,4,2.9,4.5,5.3c0.1,0.7,1.1,0.9,1.8,1c1,0.3,1.9,0.4,2.5,0.6c1.3,0.3-0.3,5.3-0.5,5.2c-5.3-1.5-22.8-5-35.8-7.5
		c-8.6-1.7-1.8,3.5-7.8,2.5c-0.9-0.1-9.3-3.1-10.1-1.7c-0.5,0.8-3.4,5.6-1.6,6.2c2.1,0.8,4.7,1.7,6.9,2.6c3.7,1.5,7.2,1.3,8.9,0
		c4.8-3.4,7.4-2.5,5.9-0.3c-3.9,5.8-7.5,7-13.6,6c-11.2-1.8-34.5-12.2-47.6-15.7c-3.8-1-0.7,3.2-7.5,1c-5.6-1.8-3-4.1-7.4-5.6
		c-8.3-2.8-7.9-4.7-14.9-0.3c-22.4,14.4-16.5,11.7-26.6,11.1c-15.1-0.8-28.4,0.8-41.6,8.2c-6.4,3.6-5,1.6-1.9,7.2
		c0.4,1.4-2,4.5-0.3,7.2C795.4,702.7,796.6,700.3,805,705.8z"/>
</g>
<g class="st1">
	<path class="st3" d="M502.2,753.7c-28.2-18.6,15.8-46.9,22.3-19.6c2.6,11.1,1.1,14.6,4.5,19.9c2.7,4.3,6.8,2.1,7.8,3.7
		c2.9,4.6,1.9,5,4.9,3.4c12.1-6.6,25.8-15.8,38.2-21c8.9-3.7,12.6,6.1,12.6,6.1L232.3,972.7c0,0-8.1-8.4,6.3-17.5
		c13.9-8.8,96.2-64.8,96.2-64.8s-8.1-8.4-12.1-24.3c-3.5-13.8-3.3-19-0.2-38.9c0.7-4.8-4.4-15.3-16.3-12.1c-7.4,2-18.9,1.9-10.1-3.9
		c1.8-1.2,3.5-2.4,8.2-4.1c12.3-4.5,24.9-6.8,40.7-2.3c7.6,2.2,5.7-0.7,3.6,18.3c-1.3,11.7-0.1,44.5,15.9,34.4
		c13.6-8.6,18.5-9.1,20.3-8.5c0.8,0.3,1.8,0.1,2.3-0.6c3-3.6,10-12.2,9.1-13.7c-0.9-1.4-3.4-5.4-3.4-5.4c-5.4-0.6-3.7-5.8-3.7-5.8
		s-2.9-4.6-3.9-6.2c-0.5-0.8-0.2-1,0.3-1.3c1.2-0.7,1.8-1.1,2.7-1.7c0.5-0.3,1.2-0.7,1.7,0c0.5,0.8,1.7,2.8,2.2,3.5
		c0.2,0.3,0.6,0.1,1-0.1c0.2-0.1,0.6-0.3,0.8-0.5c0,0-3.2-5-3.9-6.2c-0.1-0.2-1.6-0.7-3.8-1.4c-0.7-0.2-1.6-2-2.3-2.3
		c-1.4-0.6-2.7-3.3-3.2-3.4c-2.5-0.4-4.9-1-7.9-1.5c-1-0.1-3-3.4-4-3.5c-11.2-1.6-27.8-5.6-28.9-5.8c-3.2-0.7-3.9,4.1-11,1.5
		c-4.1-1.5-4-2.9-4.5-5.3c-0.1-0.7-1.1-0.9-1.8-1.1c-1-0.3-1.9-0.4-2.5-0.6c-1.3-0.3,0.3-5.3,0.5-5.2c5.3,1.5,22.8,5.1,35.8,7.7
		c8.6,1.7,1.8-3.5,7.9-2.5c0.9,0.2,9.3,3.2,10.1,1.7c0.5-0.8,3.4-5.5,1.6-6.2c-2.1-0.8-4.7-1.8-6.9-2.7c-3.7-1.5-7.2-1.3-8.9-0.1
		c-4.9,3.4-7.4,2.5-5.9,0.3c3.9-5.8,7.5-6.9,13.6-5.9c11.2,1.9,34.4,12.4,47.5,16c3.8,1,0.7-3.2,7.5-1c5.6,1.8,3,4.1,7.4,5.6
		c8.3,2.9,7.9,4.8,14.9,0.3c22.5-14.2,16.5-11.6,26.7-10.9c15.1,0.9,28.4-0.6,41.6-7.9c6.4-3.5,5-1.5,1.9-7.2
		c-0.3-1.4,2-4.5,0.3-7.2C511.8,756.9,510.5,759.2,502.2,753.7z"/>
	<path class="st3" d="M465,739.6c28.3,18.4-15.6,47-22.2,19.7c-2.7-11.1-1.2-14.6-4.6-19.9c-2.7-4.2-6.8-2.1-7.8-3.7
		c-3-4.6-2-5-4.9-3.4c-12.1,6.7-25.7,15.9-38.1,21.2c-8.9,3.8-12.6-6.1-12.6-6.1L733.6,519c0,0,8.1,8.4-6.2,17.6
		c-13.9,8.9-95.8,65.3-95.8,65.3s8.1,8.4,12.3,24.2c3.6,13.8,3.4,18.9,0.5,38.9c-0.7,4.8,4.5,15.3,16.4,12c7.4-2,18.9-2,10.1,3.9
		c-1.8,1.2-3.5,2.4-8.2,4.2c-12.3,4.6-24.9,7-40.7,2.5c-7.6-2.1-5.7,0.8-3.7-18.3c1.2-11.7-0.2-44.5-16.1-34.3
		c-13.6,8.7-18.5,9.2-20.2,8.6c-0.8-0.3-1.8,0-2.3,0.6c-3,3.6-10,12.2-9,13.7c0.9,1.4,3.5,5.4,3.5,5.4c5.4,0.5,3.7,5.8,3.7,5.7
		s2.9,4.5,4,6.2c0.5,0.8,0.2,1-0.3,1.3c-1.2,0.7-1.7,1.1-2.7,1.7c-0.5,0.3-1.2,0.7-1.7,0c-0.5-0.8-1.8-2.7-2.2-3.5
		c-0.2-0.3-0.6-0.1-1,0.1c-0.2,0.1-0.6,0.3-0.8,0.5c0,0,3.2,5,4,6.2c0.1,0.2,1.6,0.7,3.8,1.4c0.7,0.2,1.6,2,2.3,2.3
		c1.4,0.6,2.8,3.3,3.2,3.4c2.5,0.4,4.9,1,7.9,1.4c1,0.1,3,3.4,4,3.5c11.2,1.5,27.8,5.4,28.9,5.6c3.2,0.7,3.9-4.1,11-1.6
		c4.1,1.5,4,2.9,4.5,5.3c0.1,0.7,1.1,0.9,1.8,1c1,0.3,1.9,0.4,2.5,0.6c1.3,0.3-0.3,5.3-0.5,5.2c-5.3-1.5-22.8-5-35.8-7.5
		c-8.6-1.7-1.8,3.5-7.8,2.5c-0.9-0.1-9.3-3.1-10.1-1.7c-0.5,0.8-3.4,5.6-1.6,6.2c2.1,0.8,4.7,1.7,6.9,2.6c3.7,1.5,7.2,1.3,8.9,0
		c4.8-3.4,7.4-2.5,5.9-0.3c-3.9,5.8-7.5,7-13.6,6c-11.2-1.8-34.5-12.2-47.6-15.7c-3.8-1-0.7,3.2-7.5,1c-5.6-1.8-3-4.1-7.4-5.6
		c-8.3-2.8-7.9-4.7-14.9-0.3c-22.4,14.4-16.5,11.7-26.6,11.1c-15.1-0.8-28.4,0.8-41.6,8.2c-6.4,3.6-5,1.6-1.9,7.2
		c0.4,1.4-2,4.5-0.3,7.2C455.4,736.5,456.6,734.1,465,739.6z"/>
</g>
<g class="st1">
	<path class="st3" d="M1022,922.6c28.3,18.4-15.6,47-22.2,19.7c-2.7-11.1-1.2-14.6-4.6-19.9c-2.7-4.2-6.8-2.1-7.8-3.7
		c-3-4.6-2-5-4.9-3.4c-12.1,6.7-25.7,15.9-38.1,21.2c-8.9,3.8-12.6-6.1-12.6-6.1L1290.6,702c0,0,8.1,8.4-6.2,17.6
		c-13.9,8.9-95.8,65.3-95.8,65.3s8.1,8.4,12.3,24.2c3.6,13.8,3.4,18.9,0.5,38.9c-0.7,4.8,4.5,15.3,16.4,12c7.4-2,18.9-2,10.1,3.9
		c-1.8,1.2-3.5,2.4-8.2,4.2c-12.3,4.6-24.9,7-40.7,2.5c-7.6-2.1-5.7,0.8-3.7-18.3c1.2-11.7-0.2-44.5-16.1-34.3
		c-13.6,8.7-18.5,9.2-20.2,8.6c-0.8-0.3-1.8,0-2.3,0.6c-3,3.6-10,12.2-9,13.7c0.9,1.4,3.5,5.4,3.5,5.4c5.4,0.5,3.7,5.8,3.7,5.7
		s2.9,4.5,4,6.2c0.5,0.8,0.2,1-0.3,1.3c-1.2,0.7-1.7,1.1-2.7,1.7c-0.5,0.3-1.2,0.7-1.7,0c-0.5-0.8-1.8-2.7-2.2-3.5
		c-0.2-0.3-0.6-0.1-1,0.1c-0.2,0.1-0.6,0.3-0.8,0.5c0,0,3.2,5,4,6.2c0.1,0.2,1.6,0.7,3.8,1.4c0.7,0.2,1.6,2,2.3,2.3
		c1.4,0.6,2.8,3.3,3.2,3.4c2.5,0.4,4.9,1,7.9,1.4c1,0.1,3,3.4,4,3.5c11.2,1.5,27.8,5.4,28.9,5.6c3.2,0.7,3.9-4.1,11-1.6
		c4.1,1.5,4,2.9,4.5,5.3c0.1,0.7,1.1,0.9,1.8,1c1,0.3,1.9,0.4,2.5,0.6c1.3,0.3-0.3,5.3-0.5,5.2c-5.3-1.5-22.8-5-35.8-7.5
		c-8.6-1.7-1.8,3.5-7.8,2.5c-0.9-0.1-9.3-3.1-10.1-1.7c-0.5,0.8-3.4,5.6-1.6,6.2c2.1,0.8,4.7,1.7,6.9,2.6c3.7,1.5,7.2,1.3,8.9,0
		c4.8-3.4,7.4-2.5,5.9-0.3c-3.9,5.8-7.5,7-13.6,6c-11.2-1.8-34.5-12.2-47.6-15.7c-3.8-1-0.7,3.2-7.5,1c-5.6-1.8-3-4.1-7.4-5.6
		c-8.3-2.8-7.9-4.7-14.9-0.3c-22.4,14.4-16.5,11.7-26.6,11.1c-15.1-0.8-28.4,0.8-41.6,8.2c-6.4,3.6-5,1.6-1.9,7.2
		c0.4,1.4-2,4.5-0.3,7.2C1012.4,919.5,1013.6,917.1,1022,922.6z"/>
</g>
<g class="st1">
	<path class="st3" d="M186.2,48.7C157.9,30.1,202,1.8,208.5,29.1c2.6,11.1,1.1,14.6,4.5,19.9c2.7,4.3,6.8,2.1,7.8,3.7
		c2.9,4.6,1.9,5,4.9,3.4c12.1-6.6,25.8-15.8,38.2-21c8.9-3.7,12.6,6.1,12.6,6.1L-83.7,267.7c0,0-8.1-8.4,6.3-17.5
		c13.9-8.8,96.2-64.8,96.2-64.8s-8.1-8.4-12.1-24.3c-3.5-13.8-3.3-19-0.2-38.9c0.7-4.8-4.4-15.3-16.3-12.1c-7.4,2-18.9,1.9-10.1-3.9
		c1.8-1.2,3.5-2.4,8.2-4.1c12.3-4.5,24.9-6.8,40.7-2.3c7.6,2.2,5.7-0.7,3.6,18.3c-1.3,11.7-0.1,44.5,15.9,34.4
		c13.6-8.6,18.5-9.1,20.3-8.5c0.8,0.3,1.8,0.1,2.3-0.6c3-3.6,10-12.2,9.1-13.7c-0.9-1.4-3.4-5.4-3.4-5.4c-5.4-0.6-3.7-5.8-3.7-5.8
		c0,0-2.9-4.6-3.9-6.2c-0.5-0.8-0.2-1,0.3-1.3c1.2-0.7,1.8-1.1,2.7-1.7c0.5-0.3,1.2-0.7,1.7,0c0.5,0.8,1.7,2.8,2.2,3.5
		c0.2,0.3,0.6,0.1,1-0.1c0.2-0.1,0.6-0.3,0.8-0.5c0,0-3.2-5-3.9-6.2c-0.1-0.2-1.6-0.7-3.8-1.4c-0.7-0.2-1.6-2-2.3-2.3
		c-1.4-0.6-2.7-3.3-3.2-3.4c-2.5-0.4-4.9-1-7.9-1.5c-1-0.1-3-3.4-4-3.5c-11.2-1.6-27.8-5.6-28.9-5.8c-3.2-0.7-3.9,4.1-11,1.5
		c-4.1-1.5-4-2.9-4.5-5.3C8,83.8,7,83.6,6.4,83.4c-1-0.3-1.9-0.4-2.5-0.6c-1.3-0.3,0.3-5.3,0.5-5.2c5.3,1.5,22.8,5.1,35.8,7.7
		c8.6,1.7,1.8-3.5,7.9-2.5c0.9,0.2,9.3,3.2,10.1,1.7c0.5-0.8,3.4-5.5,1.6-6.2c-2.1-0.8-4.7-1.8-6.9-2.7c-3.7-1.5-7.2-1.3-8.9-0.1
		C39,79,36.5,78.1,38,75.9c3.9-5.8,7.5-6.9,13.6-5.9C62.8,71.9,86,82.4,99.1,86c3.8,1,0.7-3.2,7.5-1c5.6,1.8,3,4.1,7.4,5.6
		c8.3,2.9,7.9,4.8,14.9,0.3c22.5-14.2,16.5-11.6,26.7-10.9c15.1,0.9,28.4-0.6,41.6-7.9c6.4-3.5,5-1.5,1.9-7.2
		c-0.3-1.4,2-4.5,0.3-7.2C195.8,51.9,194.5,54.2,186.2,48.7z"/>
	<path class="st3" d="M149,34.6c28.3,18.4-15.6,47-22.2,19.7c-2.7-11.1-1.2-14.6-4.6-19.9c-2.7-4.2-6.8-2.1-7.8-3.7
		c-3-4.6-2-5-4.9-3.4C97.4,34,83.8,43.3,71.4,48.5c-8.9,3.8-12.6-6.1-12.6-6.1L417.6-186c0,0,8.1,8.4-6.2,17.6
		c-13.9,8.9-95.8,65.3-95.8,65.3s8.1,8.4,12.3,24.2c3.6,13.8,3.4,18.9,0.5,38.9c-0.7,4.8,4.5,15.3,16.4,12c7.4-2,18.9-2,10.1,3.9
		c-1.8,1.2-3.5,2.4-8.2,4.2c-12.3,4.6-24.9,7-40.7,2.5c-7.6-2.1-5.7,0.8-3.7-18.3c1.2-11.7-0.2-44.5-16.1-34.3
		c-13.6,8.7-18.5,9.2-20.2,8.6c-0.8-0.3-1.8,0-2.3,0.6c-3,3.6-10,12.2-9,13.7c0.9,1.4,3.5,5.4,3.5,5.4c5.4,0.5,3.7,5.8,3.7,5.7
		c0,0,2.9,4.5,4,6.2c0.5,0.8,0.2,1-0.3,1.3c-1.2,0.7-1.7,1.1-2.7,1.7c-0.5,0.3-1.2,0.7-1.7,0c-0.5-0.8-1.8-2.7-2.2-3.5
		c-0.2-0.3-0.6-0.1-1,0.1c-0.2,0.1-0.6,0.3-0.8,0.5c0,0,3.2,5,4,6.2c0.1,0.2,1.6,0.7,3.8,1.4c0.7,0.2,1.6,2,2.3,2.3
		c1.4,0.6,2.8,3.3,3.2,3.4c2.5,0.4,4.9,1,7.9,1.4c1,0.1,3,3.4,4,3.5c11.2,1.5,27.8,5.4,28.9,5.6c3.2,0.7,3.9-4.1,11-1.6
		c4.1,1.5,4,2.9,4.5,5.3c0.1,0.7,1.1,0.9,1.8,1c1,0.3,1.9,0.4,2.5,0.6c1.3,0.3-0.3,5.3-0.5,5.2c-5.3-1.5-22.8-5-35.8-7.5
		c-8.6-1.7-1.8,3.5-7.8,2.5c-0.9-0.1-9.3-3.1-10.1-1.7c-0.5,0.8-3.4,5.6-1.6,6.2c2.1,0.8,4.7,1.7,6.9,2.6c3.7,1.5,7.2,1.3,8.9,0
		c4.8-3.4,7.4-2.5,5.9-0.3c-3.9,5.8-7.5,7-13.6,6C272.3,10.7,249,0.4,235.8-3.1c-3.8-1-0.7,3.2-7.5,1c-5.6-1.8-3-4.1-7.4-5.6
		c-8.3-2.8-7.9-4.7-14.9-0.3C183.7,6.4,189.6,3.7,179.4,3.1c-15.1-0.8-28.4,0.8-41.6,8.2c-6.4,3.6-5,1.6-1.9,7.2
		c0.4,1.4-2,4.5-0.3,7.2C139.4,31.5,140.6,29.1,149,34.6z"/>
</g>
<g class="st1">
	<path class="st3" d="M-58.8,571.7c-28.2-18.6,15.8-46.9,22.3-19.6c2.6,11.1,1.1,14.6,4.5,19.9c2.7,4.3,6.8,2.1,7.8,3.7
		c2.9,4.6,1.9,5,4.9,3.4c12.1-6.6,25.8-15.8,38.2-21c8.9-3.7,12.6,6.1,12.6,6.1l-360.2,226.4c0,0-8.1-8.4,6.3-17.5
		c13.9-8.8,96.2-64.8,96.2-64.8s-8.1-8.4-12.1-24.3c-3.5-13.8-3.3-19-0.2-38.9c0.7-4.8-4.4-15.3-16.3-12.1c-7.4,2-18.9,1.9-10.1-3.9
		c1.8-1.2,3.5-2.4,8.2-4.1c12.3-4.5,24.9-6.8,40.7-2.3c7.6,2.2,5.7-0.7,3.6,18.3c-1.3,11.7-0.1,44.5,15.9,34.4
		c13.6-8.6,18.5-9.1,20.3-8.5c0.8,0.3,1.8,0.1,2.3-0.6c3-3.6,10-12.2,9.1-13.7c-0.9-1.4-3.4-5.4-3.4-5.4c-5.4-0.6-3.7-5.8-3.7-5.8
		c0,0-2.9-4.6-3.9-6.2c-0.5-0.8-0.2-1,0.3-1.3c1.2-0.7,1.8-1.1,2.7-1.7c0.5-0.3,1.2-0.7,1.7,0c0.5,0.8,1.7,2.8,2.2,3.5
		c0.2,0.3,0.6,0.1,1-0.1c0.2-0.1,0.6-0.3,0.8-0.5c0,0-3.2-5-3.9-6.2c-0.1-0.2-1.6-0.7-3.8-1.4c-0.7-0.2-1.6-2-2.3-2.3
		c-1.4-0.6-2.7-3.3-3.2-3.4c-2.5-0.4-4.9-1-7.9-1.5c-1-0.1-3-3.4-4-3.5c-11.2-1.6-27.8-5.6-28.9-5.8c-3.2-0.7-3.9,4.1-11,1.5
		c-4.1-1.5-4-2.9-4.5-5.3c-0.1-0.7-1.1-0.9-1.8-1.1c-1-0.3-1.9-0.4-2.5-0.6c-1.3-0.3,0.3-5.3,0.5-5.2c5.3,1.5,22.8,5.1,35.8,7.7
		c8.6,1.7,1.8-3.5,7.9-2.5c0.9,0.2,9.3,3.2,10.1,1.7c0.5-0.8,3.4-5.5,1.6-6.2c-2.1-0.8-4.7-1.8-6.9-2.7c-3.7-1.5-7.2-1.3-8.9-0.1
		c-4.9,3.4-7.4,2.5-5.9,0.3c3.9-5.8,7.5-6.9,13.6-5.9c11.2,1.9,34.4,12.4,47.5,16c3.8,1,0.7-3.2,7.5-1c5.6,1.8,3,4.1,7.4,5.6
		c8.3,2.9,7.9,4.8,14.9,0.3c22.5-14.2,16.5-11.6,26.7-10.9c15.1,0.9,28.4-0.6,41.6-7.9c6.4-3.5,5-1.5,1.9-7.2
		c-0.3-1.4,2-4.5,0.3-7.2C-49.2,574.9-50.5,577.2-58.8,571.7z"/>
	<path class="st3" d="M-96,557.6c28.3,18.4-15.6,47-22.2,19.7c-2.7-11.1-1.2-14.6-4.6-19.9c-2.7-4.2-6.8-2.1-7.8-3.7
		c-3-4.6-2-5-4.9-3.4c-12.1,6.7-25.7,15.9-38.1,21.2c-8.9,3.8-12.6-6.1-12.6-6.1L172.6,337c0,0,8.1,8.4-6.2,17.6
		c-13.9,8.9-95.8,65.3-95.8,65.3s8.1,8.4,12.3,24.2c3.6,13.8,3.4,18.9,0.5,38.9c-0.7,4.8,4.5,15.3,16.4,12c7.4-2,18.9-2,10.1,3.9
		c-1.8,1.2-3.5,2.4-8.2,4.2c-12.3,4.6-24.9,7-40.7,2.5c-7.6-2.1-5.7,0.8-3.7-18.3c1.2-11.7-0.2-44.5-16.1-34.3
		c-13.6,8.7-18.5,9.2-20.2,8.6c-0.8-0.3-1.8,0-2.3,0.6c-3,3.6-10,12.2-9,13.7c0.9,1.4,3.5,5.4,3.5,5.4c5.4,0.5,3.7,5.8,3.7,5.7
		c0,0,2.9,4.5,4,6.2c0.5,0.8,0.2,1-0.3,1.3c-1.2,0.7-1.7,1.1-2.7,1.7c-0.5,0.3-1.2,0.7-1.7,0c-0.5-0.8-1.8-2.7-2.2-3.5
		c-0.2-0.3-0.6-0.1-1,0.1c-0.2,0.1-0.6,0.3-0.8,0.5c0,0,3.2,5,4,6.2c0.1,0.2,1.6,0.7,3.8,1.4c0.7,0.2,1.6,2,2.3,2.3
		c1.4,0.6,2.8,3.3,3.2,3.4c2.5,0.4,4.9,1,7.9,1.4c1,0.1,3,3.4,4,3.5c11.2,1.5,27.8,5.4,28.9,5.6c3.2,0.7,3.9-4.1,11-1.6
		c4.1,1.5,4,2.9,4.5,5.3c0.1,0.7,1.1,0.9,1.8,1c1,0.3,1.9,0.4,2.5,0.6c1.3,0.3-0.3,5.3-0.5,5.2c-5.3-1.5-22.8-5-35.8-7.5
		c-8.6-1.7-1.8,3.5-7.8,2.5c-0.9-0.1-9.3-3.1-10.1-1.7c-0.5,0.8-3.4,5.6-1.6,6.2c2.1,0.8,4.7,1.7,6.9,2.6c3.7,1.5,7.2,1.3,8.9,0
		c4.8-3.4,7.4-2.5,5.9-0.3c-3.9,5.8-7.5,7-13.6,6C27.3,533.7,4,523.4-9.2,519.9c-3.8-1-0.7,3.2-7.5,1c-5.6-1.8-3-4.1-7.4-5.6
		c-8.3-2.8-7.9-4.7-14.9-0.3c-22.4,14.4-16.5,11.7-26.6,11.1c-15.1-0.8-28.4,0.8-41.6,8.2c-6.4,3.6-5,1.6-1.9,7.2
		c0.4,1.4-2,4.5-0.3,7.2C-105.6,554.5-104.4,552.1-96,557.6z"/>
</g>
<g class="st1">
	<path class="st3" d="M159.8,791.7c-28.2-18.6,15.8-46.9,22.3-19.6c2.6,11.1,1.1,14.6,4.5,19.9c2.7,4.3,6.8,2.1,7.8,3.7
		c2.9,4.6,1.9,5,4.9,3.4c12.1-6.6,25.8-15.8,38.2-21c8.9-3.7,12.6,6.1,12.6,6.1l-360.2,226.4c0,0-8.1-8.4,6.3-17.5
		c13.9-8.8,96.2-64.8,96.2-64.8s-8.1-8.4-12.1-24.3c-3.5-13.8-3.3-19-0.2-38.9c0.7-4.8-4.4-15.3-16.3-12.1c-7.4,2-18.9,1.9-10.1-3.9
		c1.8-1.2,3.5-2.4,8.2-4.1c12.3-4.5,24.9-6.8,40.7-2.3c7.6,2.2,5.7-0.7,3.6,18.3c-1.3,11.7-0.1,44.5,15.9,34.4
		c13.6-8.6,18.5-9.1,20.3-8.5c0.8,0.3,1.8,0.1,2.3-0.6c3-3.6,10-12.2,9.1-13.7c-0.9-1.4-3.4-5.4-3.4-5.4c-5.4-0.6-3.7-5.8-3.7-5.8
		s-2.9-4.6-3.9-6.2c-0.5-0.8-0.2-1,0.3-1.3c1.2-0.7,1.8-1.1,2.7-1.7c0.5-0.3,1.2-0.7,1.7,0c0.5,0.8,1.7,2.8,2.2,3.5
		c0.2,0.3,0.6,0.1,1-0.1c0.2-0.1,0.6-0.3,0.8-0.5c0,0-3.2-5-3.9-6.2c-0.1-0.2-1.6-0.7-3.8-1.4c-0.7-0.2-1.6-2-2.3-2.3
		c-1.4-0.6-2.7-3.3-3.2-3.4c-2.5-0.4-4.9-1-7.9-1.5c-1-0.1-3-3.4-4-3.5c-11.2-1.6-27.8-5.6-28.9-5.8c-3.2-0.7-3.9,4.1-11,1.5
		c-4.1-1.5-4-2.9-4.5-5.3c-0.1-0.7-1.1-0.9-1.8-1.1c-1-0.3-1.9-0.4-2.5-0.6c-1.3-0.3,0.3-5.3,0.5-5.2c5.3,1.5,22.8,5.1,35.8,7.7
		c8.6,1.7,1.8-3.5,7.9-2.5c0.9,0.2,9.3,3.2,10.1,1.7c0.5-0.8,3.4-5.5,1.6-6.2c-2.1-0.8-4.7-1.8-6.9-2.7c-3.7-1.5-7.2-1.3-8.9-0.1
		c-4.9,3.4-7.4,2.5-5.9,0.3c3.9-5.8,7.5-6.9,13.6-5.9c11.2,1.9,34.4,12.4,47.5,16c3.8,1,0.7-3.2,7.5-1c5.6,1.8,3,4.1,7.4,5.6
		c8.3,2.9,7.9,4.8,14.9,0.3c22.5-14.2,16.5-11.6,26.7-10.9c15.1,0.9,28.4-0.6,41.6-7.9c6.4-3.5,5-1.5,1.9-7.2
		c-0.3-1.4,2-4.5,0.3-7.2C169.5,794.9,168.2,797.2,159.8,791.7z"/>
	<path class="st3" d="M122.7,777.6c28.3,18.4-15.6,47-22.2,19.7c-2.7-11.1-1.2-14.6-4.6-19.9c-2.7-4.2-6.8-2.1-7.8-3.7
		c-3-4.6-2-5-4.9-3.4c-12.1,6.7-25.7,15.9-38.1,21.2c-8.9,3.8-12.6-6.1-12.6-6.1L391.3,557c0,0,8.1,8.4-6.2,17.6
		c-13.9,8.9-95.8,65.3-95.8,65.3s8.1,8.4,12.3,24.2c3.6,13.8,3.4,18.9,0.5,38.9c-0.7,4.8,4.5,15.3,16.4,12c7.4-2,18.9-2,10.1,3.9
		c-1.8,1.2-3.5,2.4-8.2,4.2c-12.3,4.6-24.9,7-40.7,2.5c-7.6-2.1-5.7,0.8-3.7-18.3c1.2-11.7-0.2-44.5-16.1-34.3
		c-13.6,8.7-18.5,9.2-20.2,8.6c-0.8-0.3-1.8,0-2.3,0.6c-3,3.6-10,12.2-9,13.7c0.9,1.4,3.5,5.4,3.5,5.4c5.4,0.5,3.7,5.8,3.7,5.7
		s2.9,4.5,4,6.2c0.5,0.8,0.2,1-0.3,1.3c-1.2,0.7-1.7,1.1-2.7,1.7c-0.5,0.3-1.2,0.7-1.7,0c-0.5-0.8-1.8-2.7-2.2-3.5
		c-0.2-0.3-0.6-0.1-1,0.1c-0.2,0.1-0.6,0.3-0.8,0.5c0,0,3.2,5,4,6.2c0.1,0.2,1.6,0.7,3.8,1.4c0.7,0.2,1.6,2,2.3,2.3
		c1.4,0.6,2.8,3.3,3.2,3.4c2.5,0.4,4.9,1,7.9,1.4c1,0.1,3,3.4,4,3.5c11.2,1.5,27.8,5.4,28.9,5.6c3.2,0.7,3.9-4.1,11-1.6
		c4.1,1.5,4,2.9,4.5,5.3c0.1,0.7,1.1,0.9,1.8,1c1,0.3,1.9,0.4,2.5,0.6c1.3,0.3-0.3,5.3-0.5,5.2c-5.3-1.5-22.8-5-35.8-7.5
		c-8.6-1.7-1.8,3.5-7.8,2.5c-0.9-0.1-9.3-3.1-10.1-1.7c-0.5,0.8-3.4,5.6-1.6,6.2c2.1,0.8,4.7,1.7,6.9,2.6c3.7,1.5,7.2,1.3,8.9,0
		c4.8-3.4,7.4-2.5,5.9-0.3c-3.9,5.8-7.5,7-13.6,6c-11.2-1.8-34.5-12.2-47.6-15.7c-3.8-1-0.7,3.2-7.5,1c-5.6-1.8-3-4.1-7.4-5.6
		c-8.3-2.8-7.9-4.7-14.9-0.3c-22.4,14.4-16.5,11.7-26.6,11.1c-15.1-0.8-28.4,0.8-41.6,8.2c-6.4,3.6-5,1.6-1.9,7.2
		c0.4,1.4-2,4.5-0.3,7.2C113.1,774.5,114.3,772.1,122.7,777.6z"/>
</g>
<g class="st1">
	<path class="st3" d="M-221.3,815.6c28.3,18.4-15.6,47-22.2,19.7c-2.7-11.1-1.2-14.6-4.6-19.9c-2.7-4.2-6.8-2.1-7.8-3.7
		c-3-4.6-2-5-4.9-3.4c-12.1,6.7-25.7,15.9-38.1,21.2c-8.9,3.8-12.6-6.1-12.6-6.1L47.3,595c0,0,8.1,8.4-6.2,17.6
		c-13.9,8.9-95.8,65.3-95.8,65.3s8.1,8.4,12.3,24.2c3.6,13.8,3.4,18.9,0.5,38.9c-0.7,4.8,4.5,15.3,16.4,12c7.4-2,18.9-2,10.1,3.9
		c-1.8,1.2-3.5,2.4-8.2,4.2c-12.3,4.6-24.9,7-40.7,2.5c-7.6-2.1-5.7,0.8-3.7-18.3c1.2-11.7-0.2-44.5-16.1-34.3
		c-13.6,8.7-18.5,9.2-20.2,8.6c-0.8-0.3-1.8,0-2.3,0.6c-3,3.6-10,12.2-9,13.7c0.9,1.4,3.5,5.4,3.5,5.4c5.4,0.5,3.7,5.8,3.7,5.7
		s2.9,4.5,4,6.2c0.5,0.8,0.2,1-0.3,1.3c-1.2,0.7-1.7,1.1-2.7,1.7c-0.5,0.3-1.2,0.7-1.7,0c-0.5-0.8-1.8-2.7-2.2-3.5
		c-0.2-0.3-0.6-0.1-1,0.1c-0.2,0.1-0.6,0.3-0.8,0.5c0,0,3.2,5,4,6.2c0.1,0.2,1.6,0.7,3.8,1.4c0.7,0.2,1.6,2,2.3,2.3
		c1.4,0.6,2.8,3.3,3.2,3.4c2.5,0.4,4.9,1,7.9,1.4c1,0.1,3,3.4,4,3.5c11.2,1.5,27.8,5.4,28.9,5.6c3.2,0.7,3.9-4.1,11-1.6
		c4.1,1.5,4,2.9,4.5,5.3c0.1,0.7,1.1,0.9,1.8,1c1,0.3,1.9,0.4,2.5,0.6c1.3,0.3-0.3,5.3-0.5,5.2c-5.3-1.5-22.8-5-35.8-7.5
		c-8.6-1.7-1.8,3.5-7.8,2.5c-0.9-0.1-9.3-3.1-10.1-1.7c-0.5,0.8-3.4,5.6-1.6,6.2c2.1,0.8,4.7,1.7,6.9,2.6c3.7,1.5,7.2,1.3,8.9,0
		c4.8-3.4,7.4-2.5,5.9-0.3c-3.9,5.8-7.5,7-13.6,6c-11.2-1.8-34.5-12.2-47.6-15.7c-3.8-1-0.7,3.2-7.5,1c-5.6-1.8-3-4.1-7.4-5.6
		c-8.3-2.8-7.9-4.7-14.9-0.3c-22.4,14.4-16.5,11.7-26.6,11.1c-15.1-0.8-28.4,0.8-41.6,8.2c-6.4,3.6-5,1.6-1.9,7.2
		c0.4,1.4-2,4.5-0.3,7.2C-230.9,812.5-229.7,810.1-221.3,815.6z"/>
</g>
<g class="st1">
	<path class="st3" d="M1207.3-45.3c-28.2-18.6,15.8-46.9,22.3-19.6c2.6,11.1,1.1,14.6,4.5,19.9c2.7,4.3,6.8,2.1,7.8,3.7
		c2.9,4.6,1.9,5,4.9,3.4c12.1-6.6,25.8-15.8,38.2-21c8.9-3.7,12.6,6.1,12.6,6.1L937.4,173.8c0,0-8.1-8.4,6.3-17.5
		c13.9-8.8,96.2-64.8,96.2-64.8s-8.1-8.4-12.1-24.3c-3.5-13.8-3.3-19-0.2-38.9c0.7-4.8-4.4-15.3-16.3-12.1c-7.4,2-18.9,1.9-10.1-3.9
		c1.8-1.2,3.5-2.4,8.2-4.1c12.3-4.5,24.9-6.8,40.7-2.3c7.6,2.2,5.7-0.7,3.6,18.3c-1.3,11.7-0.1,44.5,15.9,34.4
		c13.6-8.6,18.5-9.1,20.3-8.5c0.8,0.3,1.8,0.1,2.3-0.6c3-3.6,10-12.2,9.1-13.7c-0.9-1.4-3.4-5.4-3.4-5.4c-5.4-0.6-3.7-5.8-3.7-5.8
		c0,0-2.9-4.6-3.9-6.2c-0.5-0.8-0.2-1,0.3-1.3c1.2-0.7,1.8-1.1,2.7-1.7c0.5-0.3,1.2-0.7,1.7,0c0.5,0.8,1.7,2.8,2.2,3.5
		c0.2,0.3,0.6,0.1,1-0.1c0.2-0.1,0.6-0.3,0.8-0.5c0,0-3.2-5-3.9-6.2c-0.1-0.2-1.6-0.7-3.8-1.4c-0.7-0.2-1.6-2-2.3-2.3
		c-1.4-0.6-2.7-3.3-3.2-3.4c-2.5-0.4-4.9-1-7.9-1.5c-1-0.1-3-3.4-4-3.5c-11.2-1.6-27.8-5.6-28.9-5.8c-3.2-0.7-3.9,4.1-11,1.5
		c-4.1-1.5-4-2.9-4.5-5.3c-0.1-0.7-1.1-0.9-1.8-1.1c-1-0.3-1.9-0.4-2.5-0.6c-1.3-0.3,0.3-5.3,0.5-5.2c5.3,1.5,22.8,5.1,35.8,7.7
		c8.6,1.7,1.8-3.5,7.9-2.5c0.9,0.2,9.3,3.2,10.1,1.7c0.5-0.8,3.4-5.5,1.6-6.2c-2.1-0.8-4.7-1.8-6.9-2.7c-3.7-1.5-7.2-1.3-8.9-0.1
		c-4.9,3.4-7.4,2.5-5.9,0.3c3.9-5.8,7.5-6.9,13.6-5.9c11.2,1.9,34.4,12.4,47.5,16c3.8,1,0.7-3.2,7.5-1c5.6,1.8,3,4.1,7.4,5.6
		c8.3,2.9,7.9,4.8,14.9,0.3c22.5-14.2,16.5-11.6,26.7-10.9c15.1,0.9,28.4-0.6,41.6-7.9c6.4-3.5,5-1.5,1.9-7.2
		c-0.3-1.4,2-4.5,0.3-7.2C1216.9-42.1,1215.7-39.7,1207.3-45.3z"/>
</g>
<g class="st1">
	<path class="st3" d="M1548.3-78.3c-28.2-18.6,15.8-46.9,22.3-19.6c2.6,11.1,1.1,14.6,4.5,19.9c2.7,4.3,6.8,2.1,7.8,3.7
		c2.9,4.6,1.9,5,4.9,3.4c12.1-6.6,25.8-15.8,38.2-21c8.9-3.7,12.6,6.1,12.6,6.1l-360.2,226.4c0,0-8.1-8.4,6.3-17.5
		c13.9-8.8,96.2-64.8,96.2-64.8s-8.1-8.4-12.1-24.3c-3.5-13.8-3.3-19-0.2-38.9c0.7-4.8-4.4-15.3-16.3-12.1c-7.4,2-18.9,1.9-10.1-3.9
		c1.8-1.2,3.5-2.4,8.2-4.1c12.3-4.5,24.9-6.8,40.7-2.3c7.6,2.2,5.7-0.7,3.6,18.3c-1.3,11.7-0.1,44.5,15.9,34.4
		c13.6-8.6,18.5-9.1,20.3-8.5c0.8,0.3,1.8,0.1,2.3-0.6c3-3.6,10-12.2,9.1-13.7c-0.9-1.4-3.4-5.4-3.4-5.4c-5.4-0.6-3.7-5.8-3.7-5.8
		c0,0-2.9-4.6-3.9-6.2c-0.5-0.8-0.2-1,0.3-1.3c1.2-0.7,1.8-1.1,2.7-1.7c0.5-0.3,1.2-0.7,1.7,0c0.5,0.8,1.7,2.8,2.2,3.5
		c0.2,0.3,0.6,0.1,1-0.1c0.2-0.1,0.6-0.3,0.8-0.5c0,0-3.2-5-3.9-6.2c-0.1-0.2-1.6-0.7-3.8-1.4c-0.7-0.2-1.6-2-2.3-2.3
		c-1.4-0.6-2.7-3.3-3.2-3.4c-2.5-0.4-4.9-1-7.9-1.5c-1-0.1-3-3.4-4-3.5c-11.2-1.6-27.8-5.6-28.9-5.8c-3.2-0.7-3.9,4.1-11,1.5
		c-4.1-1.5-4-2.9-4.5-5.3c-0.1-0.7-1.1-0.9-1.8-1.1c-1-0.3-1.9-0.4-2.5-0.6c-1.3-0.3,0.3-5.3,0.5-5.2c5.3,1.5,22.8,5.1,35.8,7.7
		c8.6,1.7,1.8-3.5,7.9-2.5c0.9,0.2,9.3,3.2,10.1,1.7c0.5-0.8,3.4-5.5,1.6-6.2c-2.1-0.8-4.7-1.8-6.9-2.7c-3.7-1.5-7.2-1.3-8.9-0.1
		c-4.9,3.4-7.4,2.5-5.9,0.3c3.9-5.8,7.5-6.9,13.6-5.9c11.2,1.9,34.4,12.4,47.5,16c3.8,1,0.7-3.2,7.5-1c5.6,1.8,3,4.1,7.4,5.6
		c8.3,2.9,7.9,4.8,14.9,0.3c22.5-14.2,16.5-11.6,26.7-10.9c15.1,0.9,28.4-0.6,41.6-7.9c6.4-3.5,5-1.5,1.9-7.2
		c-0.3-1.4,2-4.5,0.3-7.2C1557.9-75.1,1556.7-72.7,1548.3-78.3z"/>
</g>
<g class="st1">
	<path class="st3" d="M1889.3-116.3c-28.2-18.6,15.8-46.9,22.3-19.6c2.6,11.1,1.1,14.6,4.5,19.9c2.7,4.3,6.8,2.1,7.8,3.7
		c2.9,4.6,1.9,5,4.9,3.4c12.1-6.6,25.8-15.8,38.2-21c8.9-3.7,12.6,6.1,12.6,6.1l-360.2,226.4c0,0-8.1-8.4,6.3-17.5
		c13.9-8.8,96.2-64.8,96.2-64.8s-8.1-8.4-12.1-24.3c-3.5-13.8-3.3-19-0.2-38.9c0.7-4.8-4.4-15.3-16.3-12.1c-7.4,2-18.9,1.9-10.1-3.9
		c1.8-1.2,3.5-2.4,8.2-4.1c12.3-4.5,24.9-6.8,40.7-2.3c7.6,2.2,5.7-0.7,3.6,18.3c-1.3,11.7-0.1,44.5,15.9,34.4
		c13.6-8.6,18.5-9.1,20.3-8.5c0.8,0.3,1.8,0.1,2.3-0.6c3-3.6,10-12.2,9.1-13.7c-0.9-1.4-3.4-5.4-3.4-5.4c-5.4-0.6-3.7-5.8-3.7-5.8
		c0,0-2.9-4.6-3.9-6.2c-0.5-0.8-0.2-1,0.3-1.3c1.2-0.7,1.8-1.1,2.7-1.7c0.5-0.3,1.2-0.7,1.7,0c0.5,0.8,1.7,2.8,2.2,3.5
		c0.2,0.3,0.6,0.1,1-0.1c0.2-0.1,0.6-0.3,0.8-0.5c0,0-3.2-5-3.9-6.2c-0.1-0.2-1.6-0.7-3.8-1.4c-0.7-0.2-1.6-2-2.3-2.3
		c-1.4-0.6-2.7-3.3-3.2-3.4c-2.5-0.4-4.9-1-7.9-1.5c-1-0.1-3-3.4-4-3.5c-11.2-1.6-27.8-5.6-28.9-5.8c-3.2-0.7-3.9,4.1-11,1.5
		c-4.1-1.5-4-2.9-4.5-5.3c-0.1-0.7-1.1-0.9-1.8-1.1c-1-0.3-1.9-0.4-2.5-0.6c-1.3-0.3,0.3-5.3,0.5-5.2c5.3,1.5,22.8,5.1,35.8,7.7
		c8.6,1.7,1.8-3.5,7.9-2.5c0.9,0.2,9.3,3.2,10.1,1.7c0.5-0.8,3.4-5.5,1.6-6.2c-2.1-0.8-4.7-1.8-6.9-2.7c-3.7-1.5-7.2-1.3-8.9-0.1
		c-4.9,3.4-7.4,2.5-5.9,0.3c3.9-5.8,7.5-6.9,13.6-5.9c11.2,1.9,34.4,12.4,47.5,16c3.8,1,0.7-3.2,7.5-1c5.6,1.8,3,4.1,7.4,5.6
		c8.3,2.9,7.9,4.8,14.9,0.3c22.5-14.2,16.5-11.6,26.7-10.9c15.1,0.9,28.4-0.6,41.6-7.9c6.4-3.5,5-1.5,1.9-7.2
		c-0.3-1.4,2-4.5,0.3-7.2C1898.9-113.1,1897.7-110.7,1889.3-116.3z"/>
</g>
<g class="st1">
	<path class="st3" d="M1363.9,891c28.3,18.4-15.6,47-22.2,19.7c-2.7-11.1-1.2-14.6-4.6-19.9c-2.7-4.2-6.8-2.1-7.8-3.7
		c-3-4.6-2-5-4.9-3.4c-12.1,6.7-25.7,15.9-38.1,21.2c-8.9,3.8-12.6-6.1-12.6-6.1l358.9-228.5c0,0,8.1,8.4-6.2,17.6
		c-13.9,8.9-95.8,65.3-95.8,65.3s8.1,8.4,12.3,24.2c3.6,13.8,3.4,18.9,0.5,38.9c-0.7,4.8,4.5,15.3,16.4,12c7.4-2,18.9-2,10.1,3.9
		c-1.8,1.2-3.5,2.4-8.2,4.2c-12.3,4.6-24.9,7-40.7,2.5c-7.6-2.1-5.7,0.8-3.7-18.3c1.2-11.7-0.2-44.5-16.1-34.3
		c-13.6,8.7-18.5,9.2-20.2,8.6c-0.8-0.3-1.8,0-2.3,0.6c-3,3.6-10,12.2-9,13.7c0.9,1.4,3.5,5.4,3.5,5.4c5.4,0.5,3.7,5.8,3.7,5.7
		c0,0,2.9,4.5,4,6.2c0.5,0.8,0.2,1-0.3,1.3c-1.2,0.7-1.7,1.1-2.7,1.7c-0.5,0.3-1.2,0.7-1.7,0c-0.5-0.8-1.8-2.7-2.2-3.5
		c-0.2-0.3-0.6-0.1-1,0.1c-0.2,0.1-0.6,0.3-0.8,0.5c0,0,3.2,5,4,6.2c0.1,0.2,1.6,0.7,3.8,1.4c0.7,0.2,1.6,2,2.3,2.3
		c1.4,0.6,2.8,3.3,3.2,3.4c2.5,0.4,4.9,1,7.9,1.4c1,0.1,3,3.4,4,3.5c11.2,1.5,27.8,5.4,28.9,5.6c3.2,0.7,3.9-4.1,11-1.6
		c4.1,1.5,4,2.9,4.5,5.3c0.1,0.7,1.1,0.9,1.8,1c1,0.3,1.9,0.4,2.5,0.6c1.3,0.3-0.3,5.3-0.5,5.2c-5.3-1.5-22.8-5-35.8-7.5
		c-8.6-1.7-1.8,3.5-7.8,2.5c-0.9-0.1-9.3-3.1-10.1-1.7c-0.5,0.8-3.4,5.6-1.6,6.2c2.1,0.8,4.7,1.7,6.9,2.6c3.7,1.5,7.2,1.3,8.9,0
		c4.8-3.4,7.4-2.5,5.9-0.3c-3.9,5.8-7.5,7-13.6,6c-11.2-1.8-34.5-12.2-47.6-15.7c-3.8-1-0.7,3.2-7.5,1c-5.6-1.8-3-4.1-7.4-5.6
		c-8.3-2.8-7.9-4.7-14.9-0.3c-22.4,14.4-16.5,11.7-26.6,11.1c-15.1-0.8-28.4,0.8-41.6,8.2c-6.4,3.6-5,1.6-1.9,7.2
		c0.4,1.4-2,4.5-0.3,7.2C1354.3,887.8,1355.5,885.5,1363.9,891z"/>
	<path class="st3" d="M1863.7,617.6c-28.2-18.6,15.8-46.9,22.3-19.6c2.6,11.1,1.1,14.6,4.5,19.9c2.7,4.3,6.8,2.1,7.8,3.7
		c2.9,4.6,1.9,5,4.9,3.4c12.1-6.6,25.8-15.8,38.2-21c8.9-3.7,12.6,6.1,12.6,6.1l-360.2,226.4c0,0-8.1-8.4,6.3-17.5
		c13.9-8.8,96.2-64.8,96.2-64.8s-8.1-8.4-12.1-24.3c-3.5-13.8-3.3-19-0.2-38.9c0.7-4.8-4.4-15.3-16.3-12.1c-7.4,2-18.9,1.9-10.1-3.9
		c1.8-1.2,3.5-2.4,8.2-4.1c12.3-4.5,24.9-6.8,40.7-2.3c7.6,2.2,5.7-0.7,3.6,18.3c-1.3,11.7-0.1,44.5,15.9,34.4
		c13.6-8.6,18.5-9.1,20.3-8.5c0.8,0.3,1.8,0.1,2.3-0.6c3-3.6,10-12.2,9.1-13.7c-0.9-1.4-3.4-5.4-3.4-5.4c-5.4-0.6-3.7-5.8-3.7-5.8
		s-2.9-4.6-3.9-6.2c-0.5-0.8-0.2-1,0.3-1.3c1.2-0.7,1.8-1.1,2.7-1.7c0.5-0.3,1.2-0.7,1.7,0c0.5,0.8,1.7,2.8,2.2,3.5
		c0.2,0.3,0.6,0.1,1-0.1c0.2-0.1,0.6-0.3,0.8-0.5c0,0-3.2-5-3.9-6.2c-0.1-0.2-1.6-0.7-3.8-1.4c-0.7-0.2-1.6-2-2.3-2.3
		c-1.4-0.6-2.7-3.3-3.2-3.4c-2.5-0.4-4.9-1-7.9-1.5c-1-0.1-3-3.4-4-3.5c-11.2-1.6-27.8-5.6-28.9-5.8c-3.2-0.7-3.9,4.1-11,1.5
		c-4.1-1.5-4-2.9-4.5-5.3c-0.1-0.7-1.1-0.9-1.8-1.1c-1-0.3-1.9-0.4-2.5-0.6c-1.3-0.3,0.3-5.3,0.5-5.2c5.3,1.5,22.8,5.1,35.8,7.7
		c8.6,1.7,1.8-3.5,7.9-2.5c0.9,0.2,9.3,3.2,10.1,1.7c0.5-0.8,3.4-5.5,1.6-6.2c-2.1-0.8-4.7-1.8-6.9-2.7c-3.7-1.5-7.2-1.3-8.9-0.1
		c-4.9,3.4-7.4,2.5-5.9,0.3c3.9-5.8,7.5-6.9,13.6-5.9c11.2,1.9,34.4,12.4,47.5,16c3.8,1,0.7-3.2,7.5-1c5.6,1.8,3,4.1,7.4,5.6
		c8.3,2.9,7.9,4.8,14.9,0.3c22.5-14.2,16.5-11.6,26.7-10.9c15.1,0.9,28.4-0.6,41.6-7.9c6.4-3.5,5-1.5,1.9-7.2
		c-0.3-1.4,2-4.5,0.3-7.2C1873.3,620.8,1872,623.1,1863.7,617.6z"/>
	<path class="st3" d="M1826.5,603.5c28.3,18.4-15.6,47-22.2,19.7c-2.7-11.1-1.2-14.6-4.6-19.9c-2.7-4.2-6.8-2.1-7.8-3.7
		c-3-4.6-2-5-4.9-3.4c-12.1,6.7-25.7,15.9-38.1,21.2c-8.9,3.8-12.6-6.1-12.6-6.1l358.9-228.5c0,0,8.1,8.4-6.2,17.6
		c-13.9,8.9-95.8,65.3-95.8,65.3s8.1,8.4,12.3,24.2c3.6,13.8,3.4,18.9,0.5,38.9c-0.7,4.8,4.5,15.3,16.4,12c7.4-2,18.9-2,10.1,3.9
		c-1.8,1.2-3.5,2.4-8.2,4.2c-12.3,4.6-24.9,7-40.7,2.5c-7.6-2.1-5.7,0.8-3.7-18.3c1.2-11.7-0.2-44.5-16.1-34.3
		c-13.6,8.7-18.5,9.2-20.2,8.6c-0.8-0.3-1.8,0-2.3,0.6c-3,3.6-10,12.2-9,13.7c0.9,1.4,3.5,5.4,3.5,5.4c5.4,0.5,3.7,5.8,3.7,5.7
		c0,0,2.9,4.5,4,6.2c0.5,0.8,0.2,1-0.3,1.3c-1.2,0.7-1.7,1.1-2.7,1.7c-0.5,0.3-1.2,0.7-1.7,0c-0.5-0.8-1.8-2.7-2.2-3.5
		c-0.2-0.3-0.6-0.1-1,0.1c-0.2,0.1-0.6,0.3-0.8,0.5c0,0,3.2,5,4,6.2c0.1,0.2,1.6,0.7,3.8,1.4c0.7,0.2,1.6,2,2.3,2.3
		c1.4,0.6,2.8,3.3,3.2,3.4c2.5,0.4,4.9,1,7.9,1.4c1,0.1,3,3.4,4,3.5c11.2,1.5,27.8,5.4,28.9,5.6c3.2,0.7,3.9-4.1,11-1.6
		c4.1,1.5,4,2.9,4.5,5.3c0.1,0.7,1.1,0.9,1.8,1c1,0.3,1.9,0.4,2.5,0.6c1.3,0.3-0.3,5.3-0.5,5.2c-5.3-1.5-22.8-5-35.8-7.5
		c-8.6-1.7-1.8,3.5-7.8,2.5c-0.9-0.1-9.3-3.1-10.1-1.7c-0.5,0.8-3.4,5.6-1.6,6.2c2.1,0.8,4.7,1.7,6.9,2.6c3.7,1.5,7.2,1.3,8.9,0
		c4.8-3.4,7.4-2.5,5.9-0.3c-3.9,5.8-7.5,7-13.6,6c-11.2-1.8-34.5-12.2-47.6-15.7c-3.8-1-0.7,3.2-7.5,1c-5.6-1.8-3-4.1-7.4-5.6
		c-8.3-2.8-7.9-4.7-14.9-0.3c-22.4,14.4-16.5,11.7-26.6,11.1c-15.1-0.8-28.4,0.8-41.6,8.2c-6.4,3.6-5,1.6-1.9,7.2
		c0.4,1.4-2,4.5-0.3,7.2C1816.9,600.4,1818.1,598,1826.5,603.5z"/>
</g>
<g class="st1">
	<path class="st3" d="M-190.1,61.5c28.3,18.4-15.6,47-22.2,19.7c-2.7-11.1-1.2-14.6-4.6-19.9c-2.7-4.2-6.8-2.1-7.8-3.7
		c-3-4.6-2-5-4.9-3.4c-12.1,6.7-25.7,15.9-38.1,21.2c-8.9,3.8-12.6-6.1-12.6-6.1L78.5-159.1c0,0,8.1,8.4-6.2,17.6
		c-13.9,8.9-95.8,65.3-95.8,65.3s8.1,8.4,12.3,24.2c3.6,13.8,3.4,18.9,0.5,38.9c-0.7,4.8,4.5,15.3,16.4,12c7.4-2,18.9-2,10.1,3.9
		C14,4,12.4,5.2,7.6,7c-12.3,4.6-24.9,7-40.7,2.5c-7.6-2.1-5.7,0.8-3.7-18.3c1.2-11.7-0.2-44.5-16.1-34.3
		c-13.6,8.7-18.5,9.2-20.2,8.6c-0.8-0.3-1.8,0-2.3,0.6c-3,3.6-10,12.2-9,13.7c0.9,1.4,3.5,5.4,3.5,5.4c5.4,0.5,3.7,5.8,3.7,5.7
		c0,0,2.9,4.5,4,6.2c0.5,0.8,0.2,1-0.3,1.3c-1.2,0.7-1.7,1.1-2.7,1.7c-0.5,0.3-1.2,0.7-1.7,0c-0.5-0.8-1.8-2.7-2.2-3.5
		c-0.2-0.3-0.6-0.1-1,0.1c-0.2,0.1-0.6,0.3-0.8,0.5c0,0,3.2,5,4,6.2c0.1,0.2,1.6,0.7,3.8,1.4c0.7,0.2,1.6,2,2.3,2.3
		c1.4,0.6,2.8,3.3,3.2,3.4c2.5,0.4,4.9,1,7.9,1.4c1,0.1,3,3.4,4,3.5c11.2,1.5,27.8,5.4,28.9,5.6c3.2,0.7,3.9-4.1,11-1.6
		c4.1,1.5,4,2.9,4.5,5.3c0.1,0.7,1.1,0.9,1.8,1c1,0.3,1.9,0.4,2.5,0.6c1.3,0.3-0.3,5.3-0.5,5.2c-5.3-1.5-22.8-5-35.8-7.5
		c-8.6-1.7-1.8,3.5-7.8,2.5c-0.9-0.1-9.3-3.1-10.1-1.7c-0.5,0.8-3.4,5.6-1.6,6.2c2.1,0.8,4.7,1.7,6.9,2.6c3.7,1.5,7.2,1.3,8.9,0
		c4.8-3.4,7.4-2.5,5.9-0.3c-3.9,5.8-7.5,7-13.6,6c-11.2-1.8-34.5-12.2-47.6-15.7c-3.8-1-0.7,3.2-7.5,1c-5.6-1.8-3-4.1-7.4-5.6
		c-8.3-2.8-7.9-4.7-14.9-0.3c-22.4,14.4-16.5,11.7-26.6,11.1c-15.1-0.8-28.4,0.8-41.6,8.2c-6.4,3.6-5,1.6-1.9,7.2
		c0.4,1.4-2,4.5-0.3,7.2C-199.7,58.4-198.5,56.1-190.1,61.5z"/>
	<path class="st3" d="M309.7-211.8c-28.2-18.6,15.8-46.9,22.3-19.6c2.6,11.1,1.1,14.6,4.5,19.9c2.7,4.3,6.8,2.1,7.8,3.7
		c2.9,4.6,1.9,5,4.9,3.4c12.1-6.6,25.8-15.8,38.2-21c8.9-3.7,12.6,6.1,12.6,6.1L39.8,7.2c0,0-8.1-8.4,6.3-17.5
		c13.9-8.8,96.2-64.8,96.2-64.8s-8.1-8.4-12.1-24.3c-3.5-13.8-3.3-19-0.2-38.9c0.7-4.8-4.4-15.3-16.3-12.1c-7.4,2-18.9,1.9-10.1-3.9
		c1.8-1.2,3.5-2.4,8.2-4.1c12.3-4.5,24.9-6.8,40.7-2.3c7.6,2.2,5.7-0.7,3.6,18.3c-1.3,11.7-0.1,44.5,15.9,34.4
		c13.6-8.6,18.5-9.1,20.3-8.5c0.8,0.3,1.8,0.1,2.3-0.6c3-3.6,10-12.2,9.1-13.7c-0.9-1.4-3.4-5.4-3.4-5.4c-5.4-0.6-3.7-5.8-3.7-5.8
		c0,0-2.9-4.6-3.9-6.2c-0.5-0.8-0.2-1,0.3-1.3c1.2-0.7,1.8-1.1,2.7-1.7c0.5-0.3,1.2-0.7,1.7,0c0.5,0.8,1.7,2.8,2.2,3.5
		c0.2,0.3,0.6,0.1,1-0.1c0.2-0.1,0.6-0.3,0.8-0.5c0,0-3.2-5-3.9-6.2c-0.1-0.2-1.6-0.7-3.8-1.4c-0.7-0.2-1.6-2-2.3-2.3
		c-1.4-0.6-2.7-3.3-3.2-3.4c-2.5-0.4-4.9-1-7.9-1.5c-1-0.1-3-3.4-4-3.5c-11.2-1.6-27.8-5.6-28.9-5.8c-3.2-0.7-3.9,4.1-11,1.5
		c-4.1-1.5-4-2.9-4.5-5.3c-0.1-0.7-1.1-0.9-1.8-1.1c-1-0.3-1.9-0.4-2.5-0.6c-1.3-0.3,0.3-5.3,0.5-5.2c5.3,1.5,22.8,5.1,35.8,7.7
		c8.6,1.7,1.8-3.5,7.9-2.5c0.9,0.2,9.3,3.2,10.1,1.7c0.5-0.8,3.4-5.5,1.6-6.2c-2.1-0.8-4.7-1.8-6.9-2.7c-3.7-1.5-7.2-1.3-8.9-0.1
		c-4.9,3.4-7.4,2.5-5.9,0.3c3.9-5.8,7.5-6.9,13.6-5.9c11.2,1.9,34.4,12.4,47.5,16c3.8,1,0.7-3.2,7.5-1c5.6,1.8,3,4.1,7.4,5.6
		c8.3,2.9,7.9,4.8,14.9,0.3c22.5-14.2,16.5-11.6,26.7-10.9c15.1,0.9,28.4-0.6,41.6-7.9c6.4-3.5,5-1.5,1.9-7.2
		c-0.3-1.4,2-4.5,0.3-7.2C319.3-208.6,318.1-206.3,309.7-211.8z"/>
</g>
</svg>
